<?xml version="1.0" encoding="utf-8"?>
<!-- Generator: Adobe Illustrator 16.2.1, SVG Export Plug-In . SVG Version: 6.00 Build 0)  -->
<!DOCTYPE svg PUBLIC "-//W3C//DTD SVG 1.1//EN" "http://www.w3.org/Graphics/SVG/1.1/DTD/svg11.dtd">
<svg version="1.1" xmlns="http://www.w3.org/2000/svg" xmlns:xlink="http://www.w3.org/1999/xlink" x="0px" y="0px" width="444px"
	 height="286px" viewBox="0 0 444 286" enable-background="new 0 0 444 286" xml:space="preserve">
<g id="Layer_2">
	<rect x="1" display="none" fill="#3F3F3F" stroke="#000000" stroke-miterlimit="10" width="445.5" height="286"/>
	<line fill="#FFFFFF" stroke="#FFFFFF" stroke-width="2" stroke-miterlimit="10" x1="15" y1="148" x2="422" y2="148"/>
</g>
<g id="SmartMove">
	<g>
		<path fill="#FFFFFF" d="M18.4,202.4c0.1,1.7,0.6,3.2,1.6,4.4c1,1.2,2.2,2.2,3.6,3c1.5,0.7,3.1,1.3,4.8,1.6
			c1.7,0.3,3.4,0.5,5.1,0.5c1.6,0,3.2-0.1,4.9-0.4c1.7-0.3,3.2-0.8,4.6-1.6c1.4-0.7,2.5-1.8,3.5-3c0.9-1.3,1.4-2.9,1.4-4.7
			c0-2.1-0.5-3.7-1.4-4.9c-0.9-1.2-2.1-2.1-3.6-2.7c-1.5-0.6-3.1-1-4.9-1.3c-1.8-0.2-3.6-0.5-5.4-0.7c-2.4-0.2-4.8-0.6-7.1-1.1
			c-2.3-0.5-4.4-1.3-6.2-2.3c-1.8-1-3.3-2.4-4.4-4c-1.1-1.7-1.7-3.8-1.7-6.5c0-2.6,0.6-4.8,1.7-6.7c1.1-1.9,2.6-3.4,4.4-4.6
			c1.8-1.2,3.9-2.1,6.2-2.7c2.3-0.6,4.6-0.9,7-0.9c2.3,0,4.6,0.3,6.9,0.8c2.3,0.5,4.4,1.3,6.3,2.5s3.5,2.6,4.7,4.4s1.9,4,2,6.5h-5.9
			c-0.2-1.6-0.7-3-1.6-4.1c-0.9-1.1-2-2-3.3-2.6c-1.3-0.6-2.8-1.1-4.3-1.4c-1.6-0.3-3.1-0.4-4.6-0.4c-1.5,0-3,0.2-4.5,0.5
			c-1.5,0.3-3,0.8-4.3,1.6c-1.3,0.7-2.3,1.7-3.2,2.9c-0.8,1.2-1.2,2.6-1.2,4.3c0,1.9,0.4,3.5,1.3,4.6c0.9,1.1,2,1.9,3.3,2.5
			c1.4,0.6,2.9,1,4.6,1.2c1.7,0.2,3.3,0.4,4.9,0.6c2.6,0.3,5.2,0.7,7.6,1.2c2.5,0.5,4.6,1.2,6.5,2.3c1.9,1,3.4,2.5,4.6,4.2
			c1.1,1.8,1.7,4.1,1.7,7c0,2.8-0.6,5.1-1.9,7.1c-1.2,1.9-2.8,3.5-4.8,4.7c-2,1.2-4.2,2.1-6.6,2.6c-2.4,0.5-4.9,0.8-7.3,0.9
			c-2.5,0-5-0.2-7.4-0.7c-2.5-0.5-4.7-1.4-6.8-2.6c-2-1.2-3.7-2.8-5-4.7c-1.3-1.9-2-4.2-2.1-6.9H18.4z"/>
		<path fill="#FFFFFF" d="M113.6,216.7v-21.5c0-1.4-0.1-2.8-0.4-4.1c-0.3-1.3-0.7-2.4-1.4-3.3c-0.7-0.9-1.5-1.7-2.6-2.2
			c-1.1-0.5-2.4-0.8-3.9-0.8c-1.5,0-2.9,0.3-4.3,0.8c-1.3,0.5-2.5,1.3-3.4,2.2c-1,0.9-1.7,2.1-2.3,3.4c-0.6,1.3-0.8,2.8-0.8,4.4v21
			h-5.9v-21.2c0-1.5-0.1-2.9-0.4-4.2c-0.3-1.3-0.8-2.5-1.4-3.4c-0.7-0.9-1.6-1.7-2.7-2.2c-1.1-0.5-2.4-0.8-4-0.8c-3.2,0-5.7,1-7.5,3
			s-2.7,4.6-2.7,7.9v20.9h-5.9v-26.1c0-1.2,0-2.2-0.1-3c-0.1-0.8-0.3-1.4-0.6-1.9c-0.3-0.4-0.7-0.7-1.3-0.9
			c-0.6-0.2-1.3-0.2-2.3-0.1l-0.1-4.3c1.3-0.2,2.5-0.3,3.7-0.4c1.2-0.1,2.2,0,3.1,0.4c0.9,0.3,1.6,0.9,2.1,1.8
			c0.5,0.9,0.8,2.2,0.8,4c1.3-2.4,3.1-4,5.2-5c2.2-0.9,4.5-1.4,7.2-1.4c6.1,0,9.9,2.6,11.3,7.7c1.5-2.8,3.4-4.8,5.8-6
			c2.4-1.1,5.1-1.7,8.2-1.7c2.4,0,4.5,0.4,6.1,1.2c1.6,0.8,3,1.9,3.9,3.3c1,1.4,1.6,3,2.1,4.8c0.4,1.8,0.6,3.8,0.6,5.9v21.5H113.6z"
			/>
		<path fill="#FFFFFF" d="M154.7,210.2c-0.7,1.2-1.5,2.3-2.6,3.2c-1.1,0.9-2.2,1.6-3.5,2.2c-1.3,0.6-2.7,1-4.1,1.3
			c-1.4,0.3-2.9,0.4-4.2,0.4c-1.7,0-3.3-0.2-4.9-0.6c-1.6-0.4-3-1-4.1-1.9c-1.2-0.9-2.1-2-2.8-3.3c-0.7-1.3-1.1-2.9-1.1-4.7
			c0-2,0.4-3.7,1.1-5.2c0.7-1.5,1.7-2.7,3-3.7c1.3-1,2.8-1.7,4.4-2.2c1.7-0.5,3.5-0.7,5.4-0.7c2.1,0,4.3,0.2,6.5,0.6
			c2.2,0.4,4.3,1.1,6.1,2.1v-5.2c0-1.5-0.4-2.7-1.1-3.7c-0.7-1-1.7-1.8-2.8-2.3c-1.1-0.5-2.4-0.9-3.7-1.2c-1.3-0.2-2.6-0.3-3.9-0.3
			c-2.1,0-4.1,0.2-6,0.6c-1.9,0.4-3.6,1.1-5.2,2l-1-4.6c1.8-0.9,3.8-1.6,6-2c2.3-0.4,4.6-0.7,7-0.7c2.1,0,4.1,0.2,6,0.6
			c1.9,0.4,3.7,1.1,5.2,2.1c1.5,1,2.7,2.3,3.6,3.9c0.9,1.6,1.3,3.6,1.3,5.9v15c0,1,0,1.9,0,2.7c0,0.8,0.2,1.4,0.4,1.9
			c0.3,0.5,0.7,0.8,1.3,1c0.6,0.2,1.4,0.2,2.5,0.1l0.1,3.8c-1.5,0.2-2.8,0.3-4,0.3c-1.1-0.1-2.1-0.3-2.8-0.8
			c-0.8-0.5-1.3-1.2-1.7-2.2C154.9,213.2,154.7,211.9,154.7,210.2z M153.9,202c-1.2-0.7-2.8-1.3-4.9-1.8c-2.1-0.5-4.2-0.7-6.3-0.7
			c-1.2,0-2.3,0.1-3.5,0.4c-1.1,0.2-2.2,0.6-3,1.2c-0.9,0.5-1.6,1.3-2.2,2.2c-0.6,0.9-0.8,2-0.8,3.3c0,1.1,0.2,2.1,0.7,2.9
			c0.5,0.8,1.1,1.4,1.8,1.8c0.8,0.4,1.6,0.8,2.6,0.9c1,0.2,2,0.3,3,0.3c1.2,0,2.5-0.1,3.8-0.4c1.3-0.3,2.5-0.8,3.7-1.4
			c1.2-0.6,2.2-1.5,3.1-2.5c0.9-1,1.5-2.3,1.9-3.7V202z"/>
		<path fill="#FFFFFF" d="M177.3,185.8c1.1-2.1,2.7-3.6,4.6-4.4c2-0.9,4.1-1.3,6.5-1.3c3.2,0,6.1,0.9,8.6,2.7l-1.4,4.9
			c-1.2-0.7-2.4-1.3-3.7-1.8c-1.3-0.4-2.6-0.6-4.1-0.6c-1.3,0-2.6,0.2-3.8,0.7c-1.2,0.4-2.3,1.1-3.2,1.9c-0.9,0.8-1.7,1.8-2.2,3
			c-0.6,1.2-0.8,2.5-0.8,3.8v22.1h-5.9v-27.3c0-0.8,0-1.5-0.1-2.2c-0.1-0.7-0.2-1.2-0.5-1.6c-0.3-0.4-0.7-0.7-1.3-0.9
			c-0.6-0.2-1.4-0.2-2.5-0.1l-0.1-3.9c1.4-0.2,2.7-0.4,3.9-0.4c1.2,0,2.2,0.2,3.1,0.5c0.9,0.3,1.6,0.9,2.1,1.7
			C177,183.3,177.2,184.4,177.3,185.8z"/>
		<path fill="#FFFFFF" d="M212.5,180.8H226v4.3h-13.5v18.2c0,3.2,0.7,5.6,2,7.1c1.3,1.5,3.2,2.2,5.5,2.2c2,0,4.3-0.5,7.1-1.5
			l0.7,4.6c-3.4,1.1-6.6,1.6-9.5,1.6c-3.6,0-6.4-1.1-8.5-3.3c-2.1-2.2-3.2-5.7-3.2-10.6v-18.4l-7.8-0.4v-3.9h8.2l0.6-11.2h4.9V180.8
			z"/>
		<path fill="#FFFFFF" d="M281.6,164.3h2.4v52.4h-6.4V179l-17.5,23.6h-1L241.7,179v37.8h-6.4v-52.4h2.5l21.9,29.2L281.6,164.3z"/>
		<path fill="#FFFFFF" d="M331.2,198.6c0,3.1-0.6,5.9-1.7,8.2c-1.1,2.3-2.6,4.3-4.4,5.9c-1.8,1.6-3.9,2.7-6.2,3.5
			c-2.3,0.8-4.7,1.2-7.1,1.2c-2.4,0-4.7-0.4-7-1.2c-2.3-0.8-4.4-2-6.2-3.6c-1.8-1.6-3.2-3.5-4.3-5.8c-1.1-2.3-1.6-5-1.6-8.2
			s0.6-5.9,1.7-8.2c1.1-2.3,2.6-4.3,4.4-5.8c1.8-1.5,3.9-2.7,6.2-3.4c2.3-0.8,4.7-1.2,7.1-1.2s4.8,0.4,7.1,1.2
			c2.3,0.8,4.4,1.9,6.2,3.5c1.8,1.5,3.2,3.5,4.3,5.8C330.7,192.8,331.2,195.5,331.2,198.6z M298.6,198.6c0,2.3,0.4,4.3,1.1,6.1
			c0.8,1.7,1.8,3.2,3,4.3c1.3,1.1,2.7,2,4.3,2.6c1.6,0.6,3.2,0.9,4.9,0.9s3.3-0.3,4.9-0.9c1.6-0.6,3-1.5,4.3-2.6
			c1.2-1.1,2.2-2.6,3-4.3c0.8-1.7,1.1-3.8,1.1-6.1c0-2.3-0.4-4.3-1.1-6c-0.8-1.7-1.8-3.1-3-4.2c-1.3-1.1-2.7-2-4.3-2.5
			c-1.6-0.6-3.2-0.9-4.9-0.9s-3.3,0.3-4.9,0.9c-1.6,0.6-3,1.4-4.3,2.5c-1.2,1.1-2.2,2.5-3,4.2C299,194.3,298.6,196.3,298.6,198.6z"
			/>
		<path fill="#FFFFFF" d="M351.8,217l-17.4-35.7v-0.7h6.5l6.2,13.5l6.1,14l6.1-14.2l6-13.3h6.4v0.7L354.3,217H351.8z"/>
		<path fill="#FFFFFF" d="M393.5,180c6.3,0,10.8,1.8,13.5,5.2c2.7,3.4,3.6,8.1,2.6,14.1h-29c-0.1,2.1,0.2,4,1,5.6
			c0.7,1.6,1.8,3,3.1,4.1c1.3,1.1,2.9,2,4.7,2.6c1.8,0.6,3.8,0.9,5.9,0.9c2.1,0,4.2-0.2,6.2-0.7c2-0.4,4.1-1.1,6.2-1.9l0.9,4.4
			c-4.4,2-8.9,3.1-13.5,3.1c-3,0-5.8-0.4-8.4-1.3c-2.5-0.9-4.7-2.2-6.5-3.9c-1.8-1.7-3.2-3.7-4.2-6.2c-1-2.4-1.4-5.2-1.3-8.3
			c0.1-2.8,0.7-5.4,1.7-7.5c1-2.2,2.4-4,4.1-5.6c1.7-1.5,3.7-2.7,5.9-3.4C388.6,180.4,391,180,393.5,180z M393.5,184.7
			c-3.3,0-6.2,0.9-8.4,2.6c-2.3,1.7-3.7,4.3-4.2,7.6h23.9c0.1-1.7-0.1-3.2-0.7-4.4c-0.6-1.3-1.3-2.3-2.4-3.2c-1-0.8-2.2-1.5-3.6-1.9
			C396.6,184.9,395.1,184.7,393.5,184.7z"/>
	</g>
</g>
<g id="TransUnion">
	<g>
		<defs>
			<rect id="SVGID_1_" x="1" width="445.5" height="141"/>
		</defs>
		<clipPath id="SVGID_2_">
			<use xlink:href="#SVGID_1_"  overflow="visible"/>
		</clipPath>
		<path clip-path="url(#SVGID_2_)" fill="#FFFFFF" d="M77.6,91c-1.1-0.8-2.4-1.5-3.8-1.9c-1.4-0.4-2.9-0.6-4.3-0.6
			c-1.1,0-2.2,0.1-3.3,0.4c-1.1,0.2-2.1,0.6-3,1.1c-0.9,0.5-1.8,1.1-2.5,1.8c-0.7,0.7-1.3,1.6-1.6,2.6c-0.1-1.4-0.5-2.6-1.2-3.4
			c-0.7-0.9-1.6-1.5-2.6-1.9c-1.1-0.4-2.2-0.6-3.5-0.6c-1.3,0-2.6,0.1-3.9,0.4l0.1,5.4c0.9,0,1.7,0,2.2,0.2c0.5,0.2,0.9,0.5,1.1,0.8
			c0.2,0.4,0.4,0.9,0.4,1.5c0,0.6,0.1,1.3,0.1,2.1v25.6h7.9v-20.4c0-1.4,0.2-2.7,0.7-3.7c0.5-1,1.1-1.9,2-2.6
			c0.8-0.7,1.8-1.2,2.9-1.5c1.1-0.3,2.2-0.5,3.4-0.5c2,0,3.9,0.5,5.7,1.4l0,0L77.6,91z"/>
		<path clip-path="url(#SVGID_2_)" fill="#FFFFFF" d="M112.7,118.9c-0.5-0.2-0.9-0.5-1.1-1c-0.2-0.4-0.4-1-0.4-1.6
			c0-0.6,0-1.4,0-2.2V91.7c-2.3-1-4.7-1.8-7.1-2.4c-2.4-0.6-4.9-0.8-7.4-0.8c-2.9-0.1-5.5,0.3-8,1.2c-2.4,0.9-4.5,2.1-6.3,3.8
			c-1.8,1.7-3.2,3.7-4.2,6c-1,2.3-1.6,5-1.6,7.9c0,2.5,0.3,4.8,1,7c0.7,2.2,1.6,4,3,5.6c1.3,1.6,3,2.9,5,3.8c2,0.9,4.4,1.4,7,1.4
			c2.6,0,5-0.7,7.3-2c2.3-1.3,3.9-3.2,4.9-5.7c0,1.9,0.3,3.3,0.9,4.4c0.6,1.1,1.4,1.8,2.3,2.3c1,0.5,2.1,0.8,3.3,0.8
			c1.2,0,2.5-0.1,3.7-0.3V119C113.9,119.1,113.2,119.1,112.7,118.9 M103.4,106.8c-0.1,3.3-0.9,6-2.5,8.1c-1.5,2.1-3.8,3.2-6.8,3.2
			c-3.3,0-5.7-1-7.3-2.9c-1.6-1.9-2.4-4.5-2.4-7.7c0.1-1.9,0.4-3.6,1-5.2c0.6-1.5,1.4-2.9,2.4-4c1-1.1,2.2-1.9,3.6-2.5
			c1.4-0.6,2.9-0.9,4.6-0.9c1.1,0,2.3,0.1,3.6,0.3c1.3,0.2,2.6,0.6,3.8,1.1V106.8z"/>
		<path clip-path="url(#SVGID_2_)" fill="#FFFFFF" d="M150.8,92.9c-1.1-1.3-2.6-2.4-4.4-3.2c-1.8-0.8-3.8-1.2-6.2-1.2
			c-1.2,0-2.4,0.1-3.6,0.3c-1.2,0.2-2.3,0.6-3.4,1c-1.1,0.5-2.1,1.1-3,1.9c-0.9,0.8-1.6,1.7-2.1,2.9c0-1.7-0.3-2.9-1-3.9
			c-0.7-0.9-1.6-1.5-2.6-1.8c-1-0.3-2.2-0.4-3.6-0.4c-1.3,0.1-2.6,0.2-3.9,0.5v5.5c0.9,0,1.6,0,2.1,0.1c0.5,0.1,0.9,0.4,1.1,0.7
			c0.2,0.4,0.4,0.9,0.4,1.5c0.1,0.7,0.1,1.5,0.1,2.5v25.1h8.1v-20.1c0-1.4,0.2-2.7,0.7-3.9c0.5-1.2,1.1-2.2,1.9-3
			c0.8-0.8,1.7-1.5,2.8-1.9c1.1-0.5,2.2-0.7,3.5-0.7c2.4,0.1,4.4,0.8,6,2.4c1.6,1.5,2.4,3.7,2.3,6.5v20.8h8.1v-20.8
			c0-2.2-0.3-4.2-0.8-6.1C152.9,95.8,152,94.2,150.8,92.9"/>
		<path clip-path="url(#SVGID_2_)" fill="#FFFFFF" d="M186.6,106.1c-1.3-0.7-2.9-1.3-4.7-1.6c-1.8-0.3-3.6-0.6-5.4-0.9
			c-2.8-0.3-4.9-0.8-6.3-1.3c-1.4-0.5-2.1-1.5-2.2-3c0-0.8,0.1-1.5,0.5-2.1c0.4-0.6,0.9-1.1,1.6-1.5c0.7-0.4,1.5-0.7,2.4-1
			c0.9-0.2,1.8-0.3,2.7-0.3c0.9,0,1.9,0.1,2.8,0.2c1,0.1,1.8,0.4,2.6,0.8c0.8,0.4,1.4,0.8,1.9,1.4c0.5,0.6,0.7,1.3,0.7,2.2h7
			c0-1.8-0.3-3.3-1.1-4.6c-0.8-1.3-1.9-2.4-3.3-3.3c-1.4-0.9-3-1.6-4.8-2c-1.8-0.4-3.8-0.7-5.8-0.7c-1.9,0-3.8,0.2-5.6,0.7
			c-1.8,0.4-3.4,1.1-4.8,2.1c-1.4,0.9-2.5,2.1-3.4,3.4c-0.9,1.4-1.3,3-1.3,4.9c0,2,0.5,3.6,1.5,4.8c1,1.2,2.2,2.1,3.7,2.8
			c1.5,0.7,3.2,1.1,5,1.4c1.8,0.3,3.7,0.6,5.5,0.8c2.3,0.3,4.3,0.8,5.7,1.4c1.5,0.6,2.2,1.8,2.2,3.4c0,1.1-0.3,2-0.8,2.7
			c-0.5,0.7-1.2,1.3-2,1.6c-0.8,0.4-1.7,0.7-2.7,0.8s-2,0.3-2.9,0.3c-1,0-1.9-0.1-2.9-0.3c-0.9-0.2-1.8-0.6-2.5-1
			c-0.8-0.4-1.4-1-1.9-1.7c-0.5-0.7-0.8-1.5-0.8-2.4h-7.8c0.1,2.2,0.7,4,1.7,5.5c1,1.4,2.2,2.6,3.7,3.5c1.5,0.9,3.2,1.5,5.1,1.8
			c1.9,0.3,3.8,0.5,5.8,0.5c2,0,3.9-0.2,5.7-0.7c1.9-0.4,3.5-1.1,4.9-2c1.4-0.9,2.6-2.1,3.4-3.5c0.9-1.4,1.3-3.1,1.3-5.1
			c0-2.1-0.4-3.8-1.2-5.1C189,107.8,187.9,106.8,186.6,106.1"/>
		<path clip-path="url(#SVGID_2_)" fill="#FFFFFF" d="M276,92.9c-1.2-1.3-2.6-2.4-4.4-3.2c-1.8-0.8-3.8-1.2-6.2-1.2
			c-1.2,0-2.4,0.1-3.6,0.3c-1.2,0.2-2.4,0.6-3.4,1c-1.1,0.5-2.1,1.1-3,1.9c-0.9,0.8-1.6,1.7-2.1,2.9c0-1.7-0.3-2.9-1-3.9
			c-0.7-0.9-1.6-1.5-2.6-1.8c-1.1-0.3-2.2-0.4-3.6-0.4c-1.3,0.1-2.6,0.2-3.9,0.5v5.5c0.9-0.1,1.6,0,2.1,0.1c0.5,0.1,0.9,0.4,1.1,0.7
			c0.2,0.4,0.4,0.9,0.4,1.5c0.1,0.7,0.1,1.5,0.1,2.5v25.1h8.1v-20.1c0-1.4,0.2-2.7,0.7-3.9c0.5-1.2,1.1-2.2,1.9-3
			c0.8-0.8,1.7-1.5,2.8-1.9c1.1-0.5,2.3-0.7,3.5-0.7c2.4,0.1,4.4,0.8,6,2.4c1.6,1.5,2.4,3.7,2.3,6.5v20.8h8.1v-20.8
			c0-2.2-0.3-4.2-0.8-6.1S277.2,94.2,276,92.9"/>
		<path clip-path="url(#SVGID_2_)" fill="#FFFFFF" d="M290.2,73.5c-1.2,0-2.3,0.4-3.3,1.2c-1,0.8-1.5,2-1.5,3.5
			c0,1.6,0.5,2.8,1.5,3.6c1,0.8,2.2,1.2,3.4,1.1c1.2,0,2.2-0.5,3.2-1.2c1-0.8,1.5-2,1.5-3.5c0-1.6-0.5-2.7-1.5-3.5
			C292.5,73.9,291.4,73.5,290.2,73.5"/>
		<rect x="286.1" y="89.2" clip-path="url(#SVGID_2_)" fill="#FFFFFF" width="8" height="35.4"/>
		<path clip-path="url(#SVGID_2_)" fill="#FFFFFF" d="M331.4,92.9c-1.8-1.5-3.8-2.6-6.1-3.3c-2.3-0.7-4.7-1.1-7.1-1.1
			c-2.3,0-4.6,0.4-6.8,1.1c-2.2,0.8-4.2,1.9-5.9,3.4c-1.7,1.5-3.1,3.4-4.1,5.7c-1.1,2.3-1.6,4.9-1.6,8c0,3.1,0.5,5.8,1.6,8.1
			c1.1,2.3,2.5,4.3,4.2,5.8c1.7,1.5,3.7,2.7,5.9,3.4c2.2,0.8,4.5,1.1,6.9,1.1c2.3,0,4.6-0.4,6.9-1.1c2.2-0.8,4.2-1.9,6-3.4
			c1.8-1.5,3.2-3.5,4.3-5.8c1.1-2.3,1.6-5,1.6-8.1c0-3.1-0.5-5.8-1.6-8.1C334.5,96.3,333.1,94.4,331.4,92.9 M328.2,111.7
			c-0.6,1.4-1.4,2.6-2.4,3.6c-1,1-2.1,1.7-3.4,2.2c-1.3,0.5-2.6,0.7-3.9,0.7c-1.4,0-2.7-0.2-4-0.7c-1.3-0.5-2.5-1.2-3.5-2.1
			c-1-1-1.9-2.2-2.5-3.6c-0.6-1.4-0.9-3.1-0.9-5c0-1.9,0.3-3.5,0.9-4.9c0.6-1.4,1.4-2.5,2.4-3.4c1-0.9,2.1-1.6,3.3-2.1
			c1.2-0.5,2.5-0.7,3.9-0.8c1.4,0,2.7,0.1,4,0.6c1.3,0.4,2.5,1.1,3.5,2.1c1,0.9,1.9,2.1,2.5,3.5c0.6,1.4,1,3.1,1,5
			C329.2,108.6,328.9,110.3,328.2,111.7"/>
		<polygon clip-path="url(#SVGID_2_)" fill="#FFFFFF" points="13.5,80.7 13.5,73.2 51.6,73.2 51.6,80.7 36.7,80.7 36.7,124.5 
			28.4,124.5 28.4,80.7 		"/>
		<path clip-path="url(#SVGID_2_)" fill="#FFFFFF" d="M197.1,107.3V73.2h8.5v33.9c0,6.8,5.1,10.5,11.6,10.5
			c6.5,0,11.4-3.7,11.4-10.5V73.2h8.4v34.1c0,11.4-9,17.9-19.9,17.9C206.1,125.2,197.1,118.7,197.1,107.3"/>
		<path clip-path="url(#SVGID_2_)" fill="#FFFFFF" d="M376.8,116.2v-5.6h0v-6.9c0-2.2-0.3-4.2-0.8-6.1c-0.6-1.9-1.4-3.5-2.6-4.8
			c-1.2-1.3-2.6-2.4-4.4-3.2c-1.8-0.8-3.8-1.2-6.2-1.2c-1.2,0-2.4,0.1-3.6,0.3c-1.2,0.2-2.3,0.6-3.5,1c-1.1,0.5-2.1,1.1-3,1.9
			c-0.9,0.8-1.6,1.7-2.1,2.9c0-1.7-0.3-2.9-1-3.9c-0.7-0.9-1.6-1.5-2.6-1.8c-1.1-0.3-2.2-0.4-3.6-0.4c-1.3,0.1-2.6,0.2-3.9,0.5v5.5
			c0.9,0,1.6,0,2.1,0.1c0.5,0.1,0.9,0.4,1.1,0.7c0.2,0.4,0.4,0.9,0.4,1.5c0,0.7,0.1,1.5,0.1,2.5v25.1h8.1v-20.1
			c0-1.4,0.2-2.7,0.7-3.9c0.5-1.2,1.1-2.2,1.9-3c0.8-0.8,1.7-1.5,2.8-1.9c1.1-0.5,2.2-0.7,3.5-0.7c2.4,0,4.4,0.8,6,2.4
			c1.6,1.5,2.4,3.7,2.3,6.5v11.9v0.9c0,8.6,5.4,9.5,12.3,8.1v-5.2C377.5,119.9,376.8,118.9,376.8,116.2"/>
		<path clip-path="url(#SVGID_2_)" fill="#FFFFFF" d="M385,120.4c0-6.4,9.5-6.4,9.5,0C394.5,126.8,385,126.8,385,120.4 M393.6,120.4
			c0-5.4-7.8-5.4-7.8,0C385.8,125.8,393.6,125.8,393.6,120.4 M391.9,122.6v0.1h-0.7l-1.2-1.6h-1v1.6h-0.7v-4.6h1.9
			c0.9,0,1.6,0.5,1.6,1.5c0,0.7-0.4,1.2-1.1,1.4L391.9,122.6z M388.9,120.5h1.1c0.6,0,1-0.3,1-0.9c0-0.5-0.4-0.9-1-0.9h-1.1V120.5z"
			/>
	</g>
	<g>
		<path fill="#00A7CB" d="M397.7,15.6c-13.7,0-25.7,7.5-32.1,18.6c-2.4,4.4-2.7,8.3-0.9,11.4c2.1,3.7,6.9,4.3,9.5,4.3h4.7l-1.7,5.4
			c-1.1,3.2-0.6,6.7,1.1,9.1c1.7,2.3,4.3,3.5,7.5,3.5c2.2,0,4.5-0.4,6.6-1.3c-0.6-0.8-1-1.7-1.4-2.6c-0.3-0.9-0.5-1.8-0.7-2.7
			c-1.3,0.5-2.8,0.7-4.3,0.7c-0.8,0-2.1-0.3-2.7-1.2c-0.6-0.8-0.8-2.1-0.3-3.6l2.3-7.2h7.3l1.9-6h-7.2l3.2-9.8h-6.4l-3.2,9.8h-6.6
			c-2.1,0-3.5-0.5-4.1-1.6c-0.7-1.2-0.1-3.8,1.7-6.8l0.1-0.1c5.6-8.3,15-13.7,25.7-13.7c17.1,0,31,13.9,31,31c0,17.2-13.9,31-31,31
			c-15.2,0-27.8-10.9-30.5-25.2l-5.9,1.2c3.3,17.1,18.3,30.1,36.4,30.1c20.5,0,37.1-16.6,37.1-37.1
			C434.7,32.2,418.1,15.6,397.7,15.6"/>
		<path fill="#00A7CB" d="M421.2,62.7c-1.4,0-3.4-0.2-4.6-1c-0.5-0.3-1.1-0.9-1.2-1.9c0,0,0-0.1,0-0.1c-0.1-0.5,0-1,0.2-1.7
			l4.6-14.1h0h-6.3h0l-3.9,12.2c0,0,0,0,0,0c-1.1,3.2-4.4,5.7-7.3,5.7c-0.8,0-1.8-0.3-2.3-1c-0.4-0.5-0.8-1.5-0.3-2.8l4.6-14.1h-6.4
			L394.3,56c-1,3-0.7,6.1,1,8.4c1.6,2.2,4.1,3.3,7.1,3.3c2.9,0,6.1-1.2,8.7-3.3c0.9,1.3,2,2.2,3.4,2.7c2,0.7,3.4,0.7,4.8,0.7
			c0.7,0,1.4-0.2,1.7-0.2c0.1-0.2,0.3-0.4,0.4-0.6c0.2-0.4,0.5-0.8,0.7-1.2c0.2-0.4,0.4-0.8,0.6-1.2c0.2-0.4,0.4-0.8,0.5-1.2
			c0.1-0.3,0.2-0.6,0.4-0.9C423.1,62.6,422.3,62.7,421.2,62.7"/>
	</g>
</g>
<g id="Layer_4">
	
		<text transform="matrix(0.9863 0 0 1 411.4219 217.0693)" fill="#FFFFFF" font-family="'Intro-Regular'" font-size="13.6715" letter-spacing="1">®</text>
</g>
<g id="Layer_5">
</g>
</svg>
