<?xml version="1.0" encoding="utf-8"?>
<!-- Generator: Adobe Illustrator 16.2.1, SVG Export Plug-In . SVG Version: 6.00 Build 0)  -->
<!DOCTYPE svg PUBLIC "-//W3C//DTD SVG 1.1//EN" "http://www.w3.org/Graphics/SVG/1.1/DTD/svg11.dtd">
<svg version="1.1" id="Layer_2" xmlns="http://www.w3.org/2000/svg" xmlns:xlink="http://www.w3.org/1999/xlink" x="0px" y="0px"
	 width="229px" height="150px" viewBox="191.5 321.5 229 150" enable-background="new 191.5 321.5 229 150" xml:space="preserve">
<g>
	<path fill="#00A6CA" d="M229.18,379.66c-0.23-0.17-0.49-0.3-0.79-0.38c-0.28-0.08-0.59-0.13-0.89-0.12c-0.22,0-0.43,0.02-0.67,0.07
		c-0.22,0.05-0.43,0.12-0.62,0.22c-0.18,0.1-0.37,0.22-0.52,0.37c-0.15,0.15-0.27,0.32-0.33,0.52c-0.02-0.28-0.1-0.52-0.25-0.7
		c-0.15-0.19-0.32-0.3-0.54-0.39c-0.22-0.08-0.45-0.12-0.72-0.12c-0.27,0-0.54,0.03-0.8,0.08l0.02,1.1c0.18-0.02,0.33,0,0.45,0.03
		c0.12,0.03,0.18,0.1,0.23,0.17c0.05,0.08,0.07,0.18,0.08,0.3c0.02,0.12,0.02,0.27,0.02,0.42v5.23h1.62v-4.16
		c0-0.28,0.05-0.54,0.15-0.75c0.1-0.22,0.23-0.38,0.4-0.54c0.17-0.13,0.37-0.25,0.59-0.32c0.22-0.07,0.45-0.1,0.7-0.1
		c0.42,0,0.8,0.1,1.17,0.28l0,0L229.18,379.66z"/>
	<path fill="#00A6CA" d="M236.36,385.36c-0.1-0.03-0.18-0.1-0.23-0.2c-0.05-0.08-0.08-0.2-0.08-0.33c0-0.13,0-0.28,0-0.45v-4.56
		c-0.48-0.22-0.97-0.37-1.46-0.48c-0.48-0.12-0.99-0.17-1.52-0.17c-0.59-0.02-1.14,0.07-1.62,0.25c-0.5,0.17-0.92,0.43-1.29,0.77
		c-0.37,0.34-0.65,0.75-0.87,1.24c-0.22,0.48-0.32,1.02-0.33,1.62c0,0.5,0.07,0.99,0.2,1.42c0.13,0.44,0.34,0.82,0.6,1.15
		c0.27,0.33,0.6,0.59,1.02,0.77c0.4,0.18,0.89,0.28,1.44,0.28c0.54,0,1.02-0.13,1.49-0.42c0.47-0.27,0.8-0.67,1-1.15
		c0,0.38,0.07,0.69,0.18,0.89c0.12,0.22,0.28,0.37,0.48,0.49c0.2,0.1,0.42,0.15,0.67,0.17c0.25,0,0.5-0.02,0.77-0.07v-1.15
		C236.61,385.41,236.46,385.39,236.36,385.36z M234.45,382.88c-0.02,0.67-0.18,1.22-0.5,1.66c-0.32,0.43-0.77,0.65-1.39,0.65
		c-0.67,0-1.17-0.2-1.49-0.59c-0.32-0.4-0.48-0.92-0.48-1.59c0.02-0.38,0.08-0.74,0.2-1.05c0.12-0.32,0.29-0.59,0.49-0.8
		c0.2-0.22,0.45-0.4,0.72-0.52c0.28-0.12,0.6-0.18,0.94-0.18c0.23,0,0.48,0.02,0.74,0.07c0.27,0.05,0.52,0.12,0.77,0.23v2.12H234.45
		z"/>
	<path fill="#00A6CA" d="M244.15,380.04c-0.23-0.27-0.53-0.48-0.89-0.65c-0.37-0.17-0.79-0.23-1.27-0.23
		c-0.23,0-0.49,0.02-0.72,0.07c-0.25,0.05-0.48,0.12-0.7,0.22c-0.22,0.1-0.43,0.22-0.6,0.39c-0.18,0.17-0.32,0.35-0.42,0.58
		c0-0.33-0.07-0.6-0.22-0.79c-0.13-0.19-0.32-0.32-0.53-0.37c-0.22-0.07-0.45-0.08-0.72-0.07c-0.27,0.02-0.54,0.05-0.8,0.1v1.12
		c0.18-0.02,0.32,0,0.43,0.02c0.1,0.02,0.18,0.07,0.24,0.15c0.05,0.08,0.08,0.18,0.08,0.32c0.02,0.13,0.02,0.3,0.02,0.52v5.13h1.65
		v-4.11c0-0.28,0.05-0.55,0.15-0.8c0.1-0.23,0.22-0.45,0.39-0.62c0.17-0.17,0.35-0.3,0.58-0.4c0.22-0.1,0.45-0.13,0.72-0.13
		c0.49,0.02,0.9,0.17,1.22,0.48c0.32,0.32,0.48,0.75,0.47,1.32v4.25h1.66v-4.25c0-0.45-0.05-0.87-0.17-1.24
		C244.57,380.64,244.38,380.33,244.15,380.04z"/>
	<path fill="#00A6CA" d="M251.46,382.75c-0.27-0.15-0.59-0.27-0.95-0.33c-0.35-0.07-0.74-0.13-1.1-0.18c-0.57-0.07-1-0.15-1.29-0.27
		c-0.28-0.1-0.43-0.3-0.43-0.6c-0.02-0.17,0.02-0.3,0.1-0.44c0.08-0.12,0.18-0.23,0.33-0.32c0.15-0.08,0.3-0.15,0.49-0.2
		c0.18-0.05,0.37-0.07,0.55-0.07c0.19,0,0.39,0.02,0.59,0.05s0.37,0.08,0.52,0.15c0.15,0.07,0.29,0.17,0.39,0.28
		c0.1,0.12,0.15,0.27,0.15,0.45h1.44c0.02-0.37-0.07-0.67-0.22-0.95c-0.17-0.27-0.38-0.5-0.67-0.69c-0.28-0.18-0.62-0.32-0.99-0.42
		c-0.37-0.08-0.77-0.13-1.19-0.13c-0.38,0-0.77,0.05-1.14,0.13c-0.37,0.08-0.7,0.23-0.99,0.42c-0.29,0.18-0.52,0.42-0.69,0.7
		c-0.18,0.28-0.27,0.62-0.27,1c0.02,0.42,0.12,0.74,0.3,0.97c0.2,0.23,0.45,0.44,0.75,0.57s0.65,0.23,1.02,0.28
		c0.37,0.07,0.75,0.12,1.12,0.17c0.48,0.07,0.87,0.15,1.17,0.28c0.3,0.13,0.45,0.35,0.45,0.69c-0.02,0.22-0.07,0.4-0.17,0.55
		c-0.1,0.15-0.24,0.25-0.4,0.33c-0.17,0.08-0.35,0.13-0.55,0.17c-0.2,0.03-0.4,0.05-0.6,0.05s-0.4-0.02-0.58-0.07
		c-0.18-0.05-0.37-0.12-0.52-0.2c-0.15-0.08-0.28-0.2-0.38-0.33c-0.1-0.13-0.15-0.3-0.17-0.48h-1.62c0.03,0.45,0.15,0.82,0.35,1.12
		c0.2,0.3,0.45,0.53,0.75,0.72c0.3,0.18,0.65,0.3,1.04,0.37c0.38,0.07,0.77,0.1,1.17,0.1s0.79-0.05,1.17-0.13
		c0.38-0.08,0.72-0.23,1-0.42c0.29-0.18,0.52-0.42,0.7-0.72c0.18-0.28,0.27-0.63,0.27-1.04c0-0.44-0.08-0.77-0.25-1.04
		C251.94,383.1,251.73,382.9,251.46,382.75z"/>
	<path fill="#00A6CA" d="M269.73,380.04c-0.23-0.27-0.54-0.48-0.89-0.65c-0.37-0.17-0.79-0.23-1.27-0.23
		c-0.23,0-0.48,0.02-0.72,0.07c-0.25,0.05-0.49,0.12-0.7,0.22c-0.22,0.1-0.44,0.22-0.6,0.39c-0.18,0.17-0.32,0.35-0.42,0.58
		c0-0.33-0.07-0.6-0.22-0.79c-0.13-0.19-0.32-0.32-0.54-0.37c-0.22-0.07-0.45-0.08-0.72-0.07c-0.27,0.02-0.54,0.05-0.8,0.1v1.12
		c0.18-0.02,0.32,0,0.43,0.02c0.1,0.02,0.18,0.07,0.23,0.15c0.05,0.08,0.08,0.18,0.08,0.32c0.02,0.13,0.02,0.3,0.02,0.52v5.13h1.66
		v-4.11c0-0.28,0.05-0.55,0.15-0.8c0.1-0.23,0.22-0.45,0.38-0.62c0.17-0.17,0.35-0.3,0.57-0.4c0.22-0.1,0.47-0.13,0.72-0.13
		c0.48,0.02,0.9,0.17,1.22,0.48c0.32,0.32,0.48,0.75,0.47,1.32v4.25h1.66v-4.25c0-0.45-0.05-0.87-0.17-1.24
		C270.15,380.64,269.97,380.33,269.73,380.04z"/>
	<path fill="#00A6CA" d="M272.63,376.09c-0.25,0-0.49,0.08-0.69,0.23c-0.2,0.17-0.3,0.4-0.3,0.72c0,0.34,0.1,0.59,0.32,0.74
		c0.22,0.17,0.43,0.25,0.69,0.23c0.23-0.02,0.45-0.1,0.65-0.25c0.2-0.17,0.3-0.4,0.3-0.72c0-0.32-0.1-0.57-0.3-0.72
		C273.1,376.18,272.88,376.09,272.63,376.09z"/>
	<rect x="271.81" y="379.29" fill="#00A6CA" width="1.64" height="7.22"/>
	<path fill="#00A6CA" d="M281.06,380.06c-0.37-0.3-0.77-0.54-1.24-0.69c-0.47-0.15-0.95-0.22-1.46-0.22c-0.47,0-0.94,0.08-1.39,0.23
		c-0.45,0.15-0.85,0.39-1.2,0.7c-0.35,0.32-0.63,0.7-0.85,1.15c-0.22,0.47-0.32,1-0.32,1.62c0,0.64,0.12,1.19,0.33,1.66
		c0.22,0.47,0.5,0.87,0.87,1.19c0.35,0.32,0.75,0.55,1.22,0.7c0.45,0.15,0.92,0.23,1.4,0.23c0.48,0,0.95-0.08,1.41-0.23
		s0.87-0.38,1.22-0.7c0.35-0.32,0.65-0.7,0.87-1.19c0.22-0.47,0.33-1.02,0.33-1.66c0-0.64-0.1-1.19-0.32-1.65
		C281.69,380.74,281.41,380.36,281.06,380.06z M280.4,383.89c-0.13,0.28-0.28,0.54-0.48,0.72c-0.2,0.2-0.43,0.34-0.69,0.44
		c-0.27,0.1-0.52,0.15-0.79,0.15c-0.28,0-0.55-0.05-0.82-0.15c-0.27-0.1-0.5-0.23-0.72-0.44c-0.22-0.2-0.38-0.43-0.5-0.73
		c-0.13-0.3-0.18-0.64-0.18-1.02c0-0.39,0.07-0.72,0.18-1c0.12-0.28,0.28-0.52,0.48-0.7s0.43-0.32,0.69-0.42
		c0.25-0.1,0.52-0.15,0.79-0.15c0.29-0.02,0.55,0.03,0.82,0.12c0.27,0.08,0.5,0.23,0.72,0.42c0.22,0.18,0.39,0.43,0.5,0.72
		c0.13,0.28,0.2,0.64,0.2,1.02C280.6,383.25,280.54,383.6,280.4,383.89z"/>
	<path fill="#00A6CA" d="M216.07,377.57v-1.54h7.79v1.54h-3.04v8.95h-1.71v-8.95H216.07z"/>
	<path fill="#00A6CA" d="M253.61,382.98v-6.97h1.74v6.92c0,1.37,1.04,2.14,2.37,2.14c1.32,0,2.34-0.77,2.34-2.14v-6.92h1.72v6.97
		c0,2.34-1.82,3.66-4.06,3.66C255.45,386.65,253.61,385.32,253.61,382.98z"/>
	<path fill="#00A6CA" d="M290.34,384.82v-1.14l0,0v-1.41c0-0.45-0.05-0.87-0.17-1.24c-0.12-0.38-0.28-0.7-0.52-0.99
		c-0.23-0.27-0.54-0.49-0.89-0.65c-0.37-0.17-0.79-0.23-1.27-0.23c-0.23,0-0.48,0.02-0.72,0.07c-0.25,0.05-0.48,0.12-0.7,0.22
		c-0.22,0.1-0.43,0.22-0.6,0.38c-0.18,0.17-0.32,0.35-0.42,0.59c0-0.33-0.07-0.6-0.22-0.79c-0.13-0.18-0.32-0.32-0.53-0.37
		c-0.22-0.07-0.45-0.08-0.72-0.07c-0.27,0.02-0.54,0.05-0.79,0.1v1.12c0.18-0.02,0.32,0,0.43,0.02c0.1,0.02,0.18,0.07,0.23,0.15
		s0.08,0.18,0.08,0.32c0.02,0.13,0.02,0.3,0.02,0.52v5.13h1.65v-4.11c0-0.28,0.05-0.55,0.13-0.8c0.1-0.23,0.22-0.45,0.38-0.62
		c0.17-0.17,0.35-0.3,0.57-0.4c0.22-0.1,0.45-0.13,0.72-0.13c0.48,0.02,0.9,0.17,1.22,0.48c0.32,0.32,0.49,0.75,0.47,1.32v2.44l0,0
		v0.18c0,1.76,1.1,1.94,2.51,1.67v-1.1C290.47,385.56,290.34,385.38,290.34,384.82z"/>
	<g>
		<g>
			<path fill="#00A6CA" d="M294.6,364.25c-2.81,0-5.25,1.52-6.56,3.8c-0.5,0.9-0.54,1.69-0.17,2.34c0.43,0.75,1.4,0.87,1.96,0.87
				h0.97l-0.35,1.1c-0.22,0.67-0.13,1.37,0.22,1.86c0.33,0.47,0.89,0.72,1.52,0.72c0.45,0,0.92-0.08,1.35-0.27
				c-0.12-0.17-0.22-0.35-0.28-0.54c-0.07-0.18-0.12-0.37-0.13-0.55c-0.27,0.1-0.59,0.15-0.87,0.15c-0.17,0-0.42-0.07-0.55-0.25
				c-0.12-0.17-0.15-0.43-0.07-0.74l0.49-1.47h1.49l0.4-1.22h-1.49l0.65-2.01h-1.3l-0.65,2.01h-1.35c-0.43,0-0.7-0.12-0.84-0.33
				c-0.15-0.25-0.02-0.77,0.35-1.39l0.02-0.02c1.14-1.69,3.08-2.79,5.27-2.79c3.51,0,6.34,2.84,6.34,6.34
				c0,3.51-2.84,6.34-6.34,6.34c-3.09,0-5.69-2.22-6.24-5.17l-1.2,0.25c0.67,3.49,3.75,6.14,7.44,6.14c4.18,0,7.57-3.39,7.57-7.58
				C302.18,367.65,298.78,364.25,294.6,364.25z"/>
		</g>
		<g>
			<path fill="#00A6CA" d="M299.42,373.87c-0.3,0-0.7-0.03-0.94-0.22c-0.1-0.07-0.22-0.19-0.25-0.39v-0.02
				c-0.02-0.1-0.02-0.22,0.03-0.35l0.94-2.89l0,0h-1.29l0,0l-0.8,2.49l0,0c-0.22,0.65-0.9,1.17-1.5,1.17c-0.17,0-0.37-0.07-0.47-0.2
				c-0.08-0.12-0.15-0.3-0.07-0.58l0.94-2.88h-1.3l-0.8,2.49c-0.2,0.62-0.13,1.25,0.2,1.72c0.32,0.43,0.84,0.69,1.44,0.69
				c0.6,0,1.25-0.25,1.77-0.69c0.18,0.27,0.4,0.45,0.7,0.55c0.42,0.13,0.69,0.13,0.99,0.13c0.13,0,0.29-0.03,0.35-0.05
				c0.03-0.03,0.05-0.08,0.08-0.12c0.05-0.08,0.1-0.15,0.13-0.23c0.05-0.08,0.08-0.17,0.12-0.23c0.03-0.08,0.08-0.17,0.12-0.25
				c0.02-0.05,0.05-0.12,0.07-0.18C299.8,373.85,299.62,373.87,299.42,373.87z"/>
		</g>
	</g>
	<path fill="#00A6CA" d="M292.01,385.68c0-1.3,1.94-1.3,1.94,0C293.95,386.96,292.01,386.98,292.01,385.68z M293.78,385.68
		c0-1.1-1.59-1.1-1.59,0C292.18,386.76,293.78,386.76,293.78,385.68z M293.41,386.11v0.02h-0.15l-0.25-0.33h-0.2v0.33h-0.15v-0.94
		h0.38c0.18,0,0.33,0.12,0.33,0.3c0,0.13-0.08,0.25-0.22,0.28L293.41,386.11z M292.81,385.69h0.23c0.12,0,0.2-0.07,0.2-0.18
		c0-0.1-0.08-0.18-0.2-0.18h-0.23V385.69z"/>
	<g>
		<path fill="#00A6CA" d="M318.73,383.6c0.02,0.35,0.12,0.64,0.3,0.87c0.19,0.23,0.42,0.43,0.7,0.58c0.29,0.15,0.6,0.25,0.94,0.32
			c0.33,0.07,0.67,0.1,0.99,0.1c0.3,0,0.62-0.03,0.95-0.08c0.34-0.07,0.64-0.17,0.9-0.3c0.27-0.15,0.49-0.35,0.67-0.6
			c0.18-0.25,0.27-0.57,0.28-0.94c0-0.42-0.08-0.74-0.27-0.97c-0.18-0.23-0.4-0.4-0.69-0.54c-0.28-0.12-0.6-0.2-0.95-0.25
			c-0.35-0.05-0.7-0.08-1.05-0.13c-0.47-0.05-0.94-0.12-1.37-0.22c-0.45-0.1-0.85-0.25-1.2-0.45c-0.35-0.2-0.63-0.47-0.85-0.8
			c-0.22-0.33-0.32-0.75-0.32-1.27c0-0.5,0.12-0.95,0.33-1.32c0.22-0.37,0.5-0.67,0.85-0.92c0.35-0.23,0.75-0.42,1.2-0.53
			c0.45-0.12,0.9-0.18,1.36-0.18c0.43,0,0.89,0.05,1.34,0.15c0.45,0.1,0.85,0.27,1.22,0.49s0.67,0.5,0.9,0.85
			c0.23,0.35,0.37,0.79,0.38,1.29h-1.16c-0.03-0.32-0.13-0.59-0.3-0.8c-0.17-0.22-0.38-0.39-0.63-0.52
			c-0.25-0.13-0.53-0.22-0.84-0.27c-0.3-0.05-0.6-0.08-0.9-0.08c-0.28,0-0.57,0.03-0.87,0.1s-0.57,0.17-0.82,0.3
			c-0.25,0.15-0.45,0.33-0.62,0.57c-0.15,0.23-0.24,0.52-0.24,0.85c0,0.39,0.08,0.69,0.25,0.9c0.17,0.22,0.39,0.38,0.65,0.48
			c0.27,0.12,0.55,0.18,0.89,0.23c0.32,0.05,0.64,0.08,0.95,0.12c0.5,0.07,1,0.13,1.47,0.23c0.47,0.1,0.9,0.25,1.27,0.45
			c0.37,0.2,0.67,0.48,0.89,0.84s0.33,0.8,0.33,1.37c0,0.55-0.12,1.02-0.37,1.39c-0.23,0.39-0.55,0.69-0.94,0.92
			c-0.38,0.23-0.8,0.4-1.29,0.52c-0.47,0.1-0.94,0.17-1.41,0.18c-0.48,0.02-0.95-0.03-1.44-0.15c-0.48-0.1-0.92-0.28-1.3-0.52
			c-0.38-0.23-0.72-0.53-0.97-0.92c-0.25-0.39-0.38-0.84-0.42-1.35h1.17V383.6z"/>
		<path fill="#00A6CA" d="M336.72,386.41v-4.23c0-0.28-0.03-0.55-0.08-0.8c-0.05-0.25-0.15-0.47-0.27-0.65
			c-0.14-0.18-0.3-0.32-0.5-0.44c-0.2-0.1-0.45-0.17-0.75-0.17c-0.3,0-0.57,0.05-0.82,0.15c-0.25,0.1-0.47,0.25-0.67,0.44
			c-0.18,0.18-0.33,0.42-0.44,0.67c-0.1,0.27-0.17,0.55-0.17,0.87v4.13h-1.15v-4.16c0-0.3-0.03-0.57-0.08-0.84
			c-0.05-0.27-0.15-0.48-0.29-0.67c-0.13-0.18-0.3-0.33-0.52-0.44s-0.47-0.17-0.77-0.17c-0.62,0-1.1,0.2-1.46,0.58
			c-0.35,0.38-0.54,0.92-0.54,1.56v4.11h-1.15v-5.13c0-0.23,0-0.43-0.02-0.58c-0.02-0.15-0.05-0.28-0.12-0.37
			c-0.07-0.08-0.15-0.15-0.25-0.18c-0.1-0.03-0.25-0.03-0.43-0.02l-0.02-0.84c0.25-0.03,0.48-0.07,0.72-0.08
			c0.23-0.02,0.43,0.02,0.6,0.07c0.17,0.07,0.3,0.18,0.42,0.37c0.1,0.18,0.15,0.44,0.15,0.8c0.25-0.47,0.59-0.8,1-0.99
			c0.42-0.18,0.89-0.27,1.39-0.27c1.17,0,1.91,0.5,2.19,1.52c0.28-0.55,0.65-0.95,1.12-1.17c0.47-0.22,0.99-0.33,1.59-0.33
			c0.47,0,0.87,0.08,1.19,0.25c0.32,0.17,0.57,0.38,0.75,0.65c0.18,0.27,0.32,0.58,0.4,0.95c0.08,0.37,0.12,0.75,0.12,1.17v4.23
			H336.72z"/>
		<path fill="#00A6CA" d="M344.53,385.12c-0.13,0.25-0.3,0.45-0.5,0.64c-0.2,0.18-0.43,0.32-0.69,0.44c-0.25,0.12-0.52,0.2-0.8,0.25
			c-0.29,0.05-0.55,0.08-0.82,0.08c-0.32,0-0.63-0.03-0.94-0.12c-0.3-0.08-0.57-0.2-0.8-0.37c-0.24-0.17-0.42-0.38-0.55-0.65
			c-0.13-0.27-0.2-0.57-0.2-0.94c0-0.38,0.07-0.74,0.22-1.04c0.13-0.3,0.34-0.53,0.58-0.74c0.25-0.2,0.54-0.35,0.85-0.43
			c0.32-0.1,0.67-0.15,1.04-0.15c0.42,0,0.84,0.03,1.27,0.12c0.43,0.07,0.82,0.2,1.17,0.4v-1.04c0-0.3-0.07-0.53-0.22-0.74
			c-0.15-0.2-0.32-0.35-0.55-0.45c-0.22-0.1-0.47-0.18-0.72-0.23c-0.27-0.05-0.52-0.07-0.75-0.07c-0.42,0-0.8,0.05-1.17,0.12
			c-0.37,0.08-0.7,0.22-1,0.38l-0.18-0.92c0.35-0.19,0.74-0.3,1.17-0.4c0.43-0.08,0.89-0.13,1.36-0.13c0.4,0,0.79,0.03,1.17,0.12
			c0.38,0.08,0.72,0.22,1,0.4c0.28,0.18,0.52,0.45,0.69,0.75c0.17,0.32,0.25,0.7,0.25,1.17v2.96c0,0.2,0,0.37,0,0.52
			c0,0.15,0.03,0.28,0.08,0.37c0.05,0.1,0.13,0.17,0.25,0.2c0.12,0.03,0.29,0.05,0.49,0.02l0.02,0.75c-0.3,0.05-0.55,0.07-0.77,0.07
			c-0.22-0.02-0.4-0.07-0.55-0.17c-0.15-0.1-0.25-0.25-0.32-0.44C344.57,385.71,344.53,385.46,344.53,385.12z M344.37,383.5
			c-0.22-0.14-0.54-0.25-0.94-0.35c-0.4-0.1-0.8-0.15-1.22-0.15c-0.24,0-0.45,0.02-0.67,0.07c-0.22,0.05-0.42,0.13-0.58,0.23
			s-0.32,0.25-0.42,0.43c-0.1,0.18-0.17,0.38-0.17,0.65c0,0.23,0.05,0.42,0.13,0.57c0.08,0.15,0.2,0.27,0.35,0.37
			c0.15,0.08,0.32,0.15,0.5,0.18c0.18,0.03,0.38,0.05,0.58,0.05c0.23,0,0.48-0.03,0.74-0.08c0.25-0.07,0.48-0.15,0.72-0.28
			c0.23-0.13,0.43-0.29,0.6-0.49s0.3-0.45,0.37-0.74V383.5z"/>
		<path fill="#00A6CA" d="M348.76,380.31c0.22-0.42,0.52-0.7,0.9-0.87c0.38-0.17,0.8-0.25,1.25-0.25c0.62,0,1.17,0.18,1.65,0.54
			l-0.29,0.97c-0.24-0.15-0.47-0.27-0.72-0.35c-0.25-0.08-0.52-0.12-0.79-0.12c-0.25,0-0.5,0.05-0.73,0.13
			c-0.24,0.08-0.45,0.22-0.62,0.37c-0.18,0.15-0.33,0.35-0.43,0.59s-0.17,0.48-0.17,0.75v4.35h-1.14v-5.37c0-0.15,0-0.3-0.02-0.44
			c-0.02-0.13-0.05-0.23-0.1-0.32c-0.05-0.08-0.13-0.15-0.25-0.18s-0.28-0.05-0.48-0.03l-0.02-0.77c0.27-0.05,0.54-0.07,0.75-0.07
			c0.23,0,0.43,0.03,0.6,0.1c0.17,0.07,0.3,0.18,0.4,0.34C348.7,379.82,348.75,380.04,348.76,380.31z"/>
		<path fill="#00A6CA" d="M355.44,379.34h2.61v0.84h-2.61v3.6c0,0.64,0.13,1.1,0.38,1.4c0.25,0.3,0.62,0.44,1.07,0.44
			c0.39,0,0.84-0.1,1.37-0.3l0.13,0.9c-0.65,0.22-1.27,0.32-1.84,0.32c-0.7,0-1.25-0.22-1.65-0.65c-0.4-0.43-0.62-1.12-0.62-2.09
			v-3.61l-1.52-0.07v-0.77h1.59l0.12-2.21h0.96v2.21H355.44z"/>
		<path fill="#00A6CA" d="M368.66,376.09h0.47v10.32h-1.24v-7.44l-3.38,4.65h-0.18l-3.4-4.65v7.43h-1.24v-10.32h0.48l4.23,5.75
			L368.66,376.09z"/>
		<path fill="#00A6CA" d="M377.76,382.85c0,0.62-0.1,1.15-0.32,1.62c-0.21,0.47-0.5,0.85-0.85,1.15c-0.35,0.3-0.75,0.54-1.2,0.69
			c-0.45,0.15-0.92,0.23-1.39,0.23c-0.47,0-0.92-0.08-1.35-0.23c-0.45-0.15-0.84-0.38-1.19-0.7c-0.35-0.3-0.64-0.69-0.84-1.15
			c-0.22-0.45-0.32-0.99-0.32-1.6c0-0.62,0.1-1.15,0.32-1.62c0.22-0.47,0.5-0.84,0.85-1.14c0.35-0.3,0.75-0.52,1.2-0.67
			c0.45-0.15,0.9-0.23,1.37-0.23s0.94,0.08,1.37,0.23c0.45,0.15,0.83,0.38,1.19,0.69c0.35,0.3,0.63,0.69,0.83,1.14
			C377.66,381.7,377.76,382.23,377.76,382.85z M371.46,382.85c0,0.45,0.07,0.85,0.22,1.19c0.15,0.35,0.35,0.63,0.58,0.85
			c0.25,0.23,0.52,0.4,0.84,0.52c0.32,0.12,0.62,0.19,0.95,0.19c0.32,0,0.64-0.07,0.95-0.19c0.32-0.12,0.58-0.28,0.82-0.52
			c0.23-0.22,0.43-0.5,0.58-0.85c0.15-0.35,0.22-0.74,0.22-1.19s-0.07-0.84-0.22-1.17c-0.15-0.33-0.35-0.62-0.58-0.84
			c-0.25-0.22-0.52-0.38-0.84-0.5c-0.3-0.12-0.62-0.17-0.95-0.17c-0.32,0-0.64,0.05-0.96,0.17c-0.3,0.12-0.58,0.28-0.82,0.5
			c-0.23,0.22-0.43,0.5-0.58,0.84C371.52,382,371.46,382.4,371.46,382.85z"/>
		<path fill="#00A6CA" d="M381.22,386.46l-3.38-7.02v-0.13h1.25l1.21,2.66l1.17,2.76l1.17-2.79l1.17-2.63h1.24v0.13l-3.36,7.02
			H381.22L381.22,386.46z"/>
		<path fill="#00A6CA" d="M388.78,379.19c1.22,0.02,2.09,0.35,2.63,1.02c0.54,0.67,0.7,1.59,0.5,2.78h-5.6
			c-0.02,0.42,0.03,0.79,0.18,1.1c0.13,0.32,0.33,0.58,0.6,0.82c0.25,0.23,0.55,0.4,0.92,0.52c0.35,0.12,0.74,0.18,1.14,0.18
			c0.42,0,0.82-0.05,1.2-0.13c0.38-0.08,0.79-0.22,1.21-0.38l0.18,0.87c-0.85,0.4-1.72,0.6-2.61,0.6c-0.58,0-1.12-0.08-1.62-0.27
			c-0.49-0.18-0.92-0.44-1.27-0.77c-0.35-0.33-0.62-0.74-0.8-1.22c-0.18-0.47-0.27-1.02-0.25-1.62c0.02-0.55,0.13-1.05,0.32-1.49
			c0.2-0.43,0.45-0.8,0.79-1.1c0.33-0.3,0.7-0.52,1.14-0.67C387.83,379.25,388.29,379.19,388.78,379.19z M388.78,380.09
			c-0.65,0-1.19,0.17-1.64,0.52c-0.43,0.35-0.72,0.84-0.8,1.49h4.62c0.02-0.33-0.02-0.62-0.13-0.87c-0.1-0.25-0.27-0.45-0.45-0.62
			c-0.2-0.17-0.43-0.28-0.7-0.37C389.4,380.14,389.1,380.09,388.78,380.09z"/>
	</g>
	<path fill="#00A6CA" d="M392.36,385.68c0-1.3,1.94-1.3,1.94,0C394.3,386.96,392.36,386.98,392.36,385.68z M394.13,385.68
		c0-1.1-1.59-1.1-1.59,0C392.54,386.76,394.13,386.76,394.13,385.68z M393.76,386.11v0.02h-0.15l-0.25-0.33h-0.2v0.33h-0.15v-0.94
		h0.38c0.18,0,0.33,0.12,0.33,0.3c0,0.13-0.08,0.25-0.22,0.28L393.76,386.11z M393.16,385.69h0.24c0.12,0,0.2-0.07,0.2-0.18
		c0-0.1-0.08-0.18-0.2-0.18h-0.24V385.69z"/>
	
		<line fill="none" stroke="#00A6CA" stroke-width="1.2222" stroke-miterlimit="10" x1="308.87" y1="370.02" x2="308.87" y2="390.38"/>
	<g>
		<g>
			<path fill="#939393" d="M215.89,403.62c0-0.4,0.07-0.75,0.2-1.07c0.13-0.32,0.32-0.6,0.53-0.82c0.23-0.24,0.5-0.4,0.8-0.52
				c0.3-0.12,0.64-0.18,1-0.18c0.25,0,0.48,0.03,0.74,0.08c0.23,0.05,0.47,0.15,0.67,0.27c0.2,0.12,0.38,0.28,0.54,0.47
				c0.15,0.18,0.27,0.42,0.33,0.69h-0.6c-0.07-0.19-0.15-0.34-0.27-0.47c-0.12-0.12-0.23-0.22-0.39-0.3
				c-0.15-0.08-0.3-0.13-0.48-0.17c-0.17-0.03-0.35-0.05-0.54-0.05c-0.3,0-0.57,0.05-0.8,0.15c-0.23,0.1-0.43,0.25-0.6,0.43
				c-0.17,0.18-0.3,0.4-0.38,0.65c-0.08,0.25-0.13,0.52-0.13,0.82c0,0.3,0.05,0.57,0.13,0.82c0.08,0.25,0.22,0.47,0.38,0.65
				c0.17,0.18,0.37,0.32,0.6,0.44c0.23,0.1,0.5,0.15,0.8,0.15c0.27,0,0.5-0.03,0.72-0.1c0.22-0.07,0.42-0.17,0.59-0.32
				c0.17-0.13,0.3-0.32,0.4-0.52c0.1-0.22,0.17-0.45,0.18-0.74h-1.82v-0.52h2.37c0.02,0.37-0.03,0.72-0.12,1.06
				c-0.1,0.33-0.25,0.62-0.45,0.87c-0.2,0.25-0.47,0.45-0.79,0.6c-0.32,0.15-0.69,0.22-1.1,0.22c-0.37,0-0.7-0.07-1-0.19
				c-0.32-0.11-0.58-0.3-0.8-0.53c-0.23-0.24-0.4-0.5-0.54-0.84C215.96,404.37,215.89,404.02,215.89,403.62z"/>
			<path fill="#939393" d="M222.38,403.17c0.1-0.2,0.25-0.35,0.45-0.43c0.18-0.08,0.4-0.13,0.62-0.13c0.3,0,0.59,0.08,0.82,0.27
				l-0.13,0.48c-0.12-0.07-0.23-0.13-0.35-0.17c-0.12-0.03-0.25-0.07-0.38-0.07s-0.25,0.02-0.37,0.07c-0.12,0.05-0.22,0.1-0.32,0.18
				c-0.08,0.08-0.17,0.17-0.22,0.28c-0.05,0.12-0.08,0.24-0.08,0.37v2.16h-0.57v-2.66c0-0.08,0-0.15,0-0.22
				c0-0.07-0.02-0.12-0.05-0.17c-0.03-0.03-0.07-0.07-0.13-0.08c-0.05-0.02-0.13-0.02-0.23-0.02v-0.38
				c0.13-0.02,0.27-0.03,0.37-0.03c0.12,0,0.22,0.02,0.3,0.05c0.08,0.03,0.15,0.08,0.2,0.17
				C222.34,402.92,222.38,403.03,222.38,403.17z"/>
			<path fill="#939393" d="M226.47,402.6c0.6,0,1.04,0.17,1.3,0.5c0.27,0.33,0.35,0.79,0.25,1.37h-2.78
				c-0.02,0.2,0.02,0.38,0.08,0.54c0.07,0.15,0.17,0.3,0.3,0.4c0.13,0.12,0.28,0.2,0.45,0.25c0.17,0.05,0.37,0.08,0.57,0.08
				c0.2,0,0.4-0.02,0.6-0.07c0.18-0.05,0.39-0.1,0.6-0.18l0.08,0.43c-0.42,0.2-0.85,0.3-1.29,0.3c-0.29,0-0.55-0.05-0.8-0.13
				c-0.25-0.08-0.45-0.22-0.64-0.39c-0.17-0.17-0.3-0.37-0.4-0.6c-0.1-0.24-0.13-0.5-0.12-0.8c0.02-0.28,0.07-0.52,0.17-0.74
				c0.1-0.22,0.23-0.4,0.39-0.54c0.17-0.15,0.35-0.27,0.57-0.33C226.01,402.65,226.24,402.6,226.47,402.6z M226.47,403.05
				c-0.32,0-0.59,0.08-0.8,0.25c-0.22,0.17-0.35,0.42-0.4,0.73h2.29c0.02-0.17-0.02-0.32-0.07-0.43c-0.05-0.12-0.13-0.23-0.23-0.32
				c-0.1-0.08-0.22-0.15-0.35-0.18C226.78,403.08,226.62,403.05,226.47,403.05z"/>
			<path fill="#939393" d="M231.31,405.56c-0.07,0.12-0.15,0.24-0.25,0.32c-0.1,0.08-0.22,0.17-0.33,0.22
				c-0.12,0.05-0.25,0.1-0.4,0.13c-0.13,0.03-0.27,0.03-0.4,0.03c-0.17,0-0.32-0.02-0.47-0.05c-0.15-0.03-0.28-0.1-0.4-0.19
				c-0.12-0.08-0.2-0.18-0.27-0.32c-0.07-0.13-0.1-0.29-0.1-0.47c0-0.2,0.03-0.37,0.1-0.52c0.07-0.15,0.17-0.27,0.28-0.37
				c0.12-0.1,0.27-0.17,0.44-0.22c0.17-0.05,0.33-0.07,0.52-0.07c0.2,0,0.42,0.02,0.64,0.05c0.22,0.03,0.4,0.1,0.58,0.2v-0.52
				c0-0.15-0.03-0.27-0.1-0.37c-0.07-0.1-0.17-0.17-0.27-0.23c-0.12-0.05-0.23-0.08-0.35-0.12c-0.13-0.02-0.25-0.03-0.37-0.03
				c-0.2,0-0.4,0.02-0.57,0.07c-0.18,0.03-0.35,0.1-0.5,0.2l-0.1-0.45c0.17-0.08,0.37-0.15,0.58-0.2s0.43-0.07,0.67-0.07
				c0.2,0,0.38,0.02,0.58,0.05c0.18,0.03,0.35,0.1,0.5,0.2c0.15,0.1,0.25,0.22,0.33,0.37c0.08,0.15,0.12,0.35,0.12,0.57v1.47
				c0,0.1,0,0.18,0,0.25c0,0.08,0.02,0.13,0.03,0.18c0.02,0.05,0.07,0.08,0.12,0.1c0.05,0.02,0.13,0.02,0.25,0v0.37
				c-0.15,0.02-0.27,0.03-0.39,0.03c-0.1,0-0.2-0.03-0.27-0.08c-0.07-0.05-0.13-0.12-0.17-0.22
				C231.32,405.84,231.31,405.71,231.31,405.56z M231.22,404.75c-0.12-0.07-0.27-0.13-0.47-0.17c-0.2-0.05-0.4-0.07-0.6-0.07
				c-0.12,0-0.22,0.01-0.33,0.03s-0.2,0.07-0.28,0.12c-0.08,0.05-0.15,0.12-0.2,0.22c-0.05,0.08-0.08,0.2-0.08,0.32
				c0,0.12,0.02,0.2,0.07,0.28s0.1,0.13,0.17,0.18c0.07,0.05,0.15,0.07,0.25,0.08c0.1,0.02,0.18,0.03,0.28,0.03
				c0.12,0,0.23-0.02,0.37-0.05c0.12-0.03,0.25-0.08,0.35-0.13c0.12-0.07,0.22-0.15,0.3-0.25c0.08-0.1,0.15-0.22,0.18-0.37V404.75z"
				/>
			<path fill="#939393" d="M233.85,402.68h1.29v0.42h-1.29v1.77c0,0.32,0.07,0.55,0.18,0.69c0.13,0.15,0.3,0.22,0.54,0.22
				c0.18,0,0.42-0.05,0.69-0.15l0.07,0.45c-0.32,0.1-0.64,0.17-0.92,0.17c-0.35,0-0.62-0.1-0.82-0.32c-0.2-0.22-0.3-0.55-0.3-1.04
				v-1.79l-0.75-0.03v-0.38h0.79l0.05-1.09h0.47v1.09H233.85z"/>
			<path fill="#939393" d="M241.99,406.09v0.08h-0.64l-1.42-1.87h-1.34v1.87h-0.62v-5.12h2.04c0.27,0,0.5,0.05,0.72,0.13
				c0.22,0.08,0.4,0.2,0.55,0.35c0.15,0.15,0.27,0.32,0.35,0.52c0.08,0.2,0.12,0.42,0.12,0.65c0,0.2-0.03,0.38-0.08,0.55
				c-0.07,0.17-0.15,0.32-0.25,0.43c-0.1,0.13-0.23,0.23-0.39,0.33c-0.15,0.08-0.32,0.15-0.48,0.2L241.99,406.09z M240.02,403.8
				c0.17,0,0.32-0.03,0.45-0.08c0.13-0.05,0.27-0.13,0.37-0.22c0.1-0.1,0.18-0.22,0.25-0.35c0.05-0.13,0.08-0.28,0.08-0.45
				c0-0.17-0.03-0.32-0.08-0.45c-0.05-0.13-0.13-0.25-0.23-0.33c-0.1-0.1-0.22-0.17-0.37-0.22c-0.13-0.05-0.3-0.08-0.45-0.08h-1.42
				v2.19H240.02z"/>
			<path fill="#939393" d="M244.35,402.6c0.6,0,1.04,0.17,1.3,0.5c0.27,0.33,0.35,0.79,0.25,1.37h-2.78
				c-0.02,0.2,0.02,0.38,0.08,0.54c0.07,0.15,0.17,0.3,0.3,0.4c0.13,0.12,0.28,0.2,0.45,0.25c0.17,0.05,0.37,0.08,0.57,0.08
				s0.4-0.02,0.6-0.07c0.18-0.05,0.38-0.1,0.6-0.18l0.08,0.43c-0.42,0.2-0.85,0.3-1.29,0.3c-0.28,0-0.55-0.05-0.8-0.13
				c-0.25-0.08-0.45-0.22-0.64-0.39c-0.17-0.17-0.3-0.37-0.4-0.6c-0.1-0.24-0.13-0.5-0.12-0.8c0.02-0.28,0.07-0.52,0.17-0.74
				c0.1-0.22,0.23-0.4,0.38-0.54c0.17-0.15,0.35-0.27,0.57-0.33C243.87,402.65,244.1,402.6,244.35,402.6z M244.35,403.05
				c-0.32,0-0.59,0.08-0.8,0.25c-0.22,0.17-0.35,0.42-0.4,0.73h2.29c0.02-0.17-0.02-0.32-0.07-0.43c-0.05-0.12-0.13-0.23-0.23-0.32
				c-0.1-0.08-0.22-0.15-0.35-0.18C244.65,403.08,244.5,403.05,244.35,403.05z"/>
			<path fill="#939393" d="M247.39,403.25c0.15-0.25,0.33-0.42,0.57-0.5c0.23-0.1,0.47-0.15,0.7-0.15c0.25,0,0.48,0.05,0.69,0.13
				c0.2,0.08,0.37,0.22,0.5,0.38c0.13,0.17,0.23,0.35,0.3,0.57c0.07,0.22,0.1,0.45,0.1,0.7c0,0.28-0.05,0.54-0.13,0.77
				c-0.1,0.23-0.22,0.42-0.37,0.58c-0.15,0.17-0.33,0.28-0.54,0.37c-0.2,0.08-0.42,0.13-0.65,0.13c-0.18,0-0.37-0.02-0.55-0.07
				c-0.18-0.03-0.37-0.12-0.55-0.25v2.06h-0.55v-4.15c0-0.12,0-0.22,0-0.32c0-0.1-0.02-0.18-0.03-0.25
				c-0.02-0.07-0.07-0.12-0.12-0.15c-0.05-0.03-0.15-0.05-0.27-0.03v-0.42c0.28-0.05,0.5-0.03,0.67,0.05
				C247.33,402.8,247.41,402.98,247.39,403.25z M247.46,405.41c0.17,0.13,0.33,0.21,0.5,0.27c0.17,0.05,0.35,0.07,0.52,0.07
				c0.17,0,0.32-0.03,0.47-0.08c0.15-0.07,0.28-0.15,0.38-0.27c0.12-0.12,0.2-0.25,0.27-0.42c0.07-0.17,0.1-0.35,0.1-0.57
				c0-0.17-0.02-0.34-0.07-0.5c-0.03-0.15-0.1-0.28-0.2-0.4s-0.22-0.2-0.35-0.28c-0.13-0.07-0.3-0.1-0.5-0.1
				c-0.17,0-0.32,0.03-0.45,0.08c-0.13,0.07-0.25,0.15-0.33,0.25c-0.1,0.1-0.17,0.24-0.22,0.37c-0.05,0.13-0.08,0.28-0.08,0.43v1.16
				H247.46z"/>
			<path fill="#939393" d="M254.63,404.42c0,0.3-0.05,0.57-0.17,0.8c-0.1,0.23-0.25,0.42-0.42,0.57c-0.17,0.15-0.37,0.27-0.6,0.33
				c-0.22,0.08-0.45,0.12-0.69,0.12s-0.45-0.03-0.67-0.12c-0.22-0.08-0.42-0.2-0.58-0.35c-0.17-0.15-0.32-0.33-0.42-0.57
				c-0.1-0.24-0.15-0.49-0.15-0.8c0-0.3,0.05-0.57,0.17-0.8c0.1-0.23,0.25-0.42,0.42-0.57c0.17-0.15,0.37-0.27,0.6-0.33
				c0.22-0.08,0.45-0.12,0.69-0.12s0.47,0.03,0.69,0.12c0.22,0.08,0.42,0.18,0.58,0.33c0.17,0.15,0.32,0.33,0.42,0.57
				C254.58,403.85,254.63,404.12,254.63,404.42z M251.51,404.42c0,0.22,0.03,0.42,0.12,0.59c0.07,0.17,0.17,0.32,0.28,0.42
				c0.12,0.12,0.25,0.2,0.42,0.25c0.15,0.05,0.32,0.08,0.47,0.08c0.17,0,0.32-0.03,0.47-0.08c0.15-0.05,0.28-0.15,0.4-0.25
				c0.12-0.12,0.22-0.25,0.28-0.42c0.07-0.17,0.12-0.37,0.12-0.59c0-0.22-0.03-0.42-0.12-0.59c-0.07-0.17-0.17-0.3-0.28-0.42
				c-0.12-0.12-0.25-0.18-0.42-0.25c-0.15-0.05-0.32-0.08-0.47-0.08c-0.17,0-0.32,0.03-0.47,0.08c-0.15,0.05-0.28,0.13-0.4,0.25
				c-0.12,0.12-0.22,0.25-0.28,0.42C251.54,404,251.51,404.2,251.51,404.42z"/>
			<path fill="#939393" d="M256.16,403.17c0.1-0.2,0.25-0.35,0.45-0.43c0.18-0.08,0.4-0.13,0.62-0.13c0.3,0,0.58,0.08,0.82,0.27
				l-0.13,0.48c-0.12-0.07-0.23-0.13-0.35-0.17c-0.12-0.03-0.25-0.07-0.38-0.07c-0.13,0-0.25,0.02-0.37,0.07
				c-0.12,0.05-0.22,0.1-0.32,0.18c-0.08,0.08-0.17,0.17-0.22,0.28c-0.05,0.12-0.08,0.24-0.08,0.37v2.16h-0.57v-2.66
				c0-0.08,0-0.15,0-0.22c0-0.07-0.02-0.12-0.05-0.17c-0.03-0.03-0.07-0.07-0.13-0.08c-0.05-0.02-0.13-0.02-0.23-0.02v-0.38
				c0.13-0.02,0.27-0.03,0.37-0.03c0.12,0,0.22,0.02,0.3,0.05c0.08,0.03,0.15,0.08,0.2,0.17
				C256.12,402.92,256.16,403.03,256.16,403.17z"/>
			<path fill="#939393" d="M259.62,402.68h1.29v0.42h-1.29v1.77c0,0.32,0.07,0.55,0.18,0.69c0.13,0.15,0.3,0.22,0.54,0.22
				c0.18,0,0.42-0.05,0.69-0.15l0.07,0.45c-0.32,0.1-0.64,0.17-0.92,0.17c-0.35,0-0.62-0.1-0.82-0.32c-0.2-0.22-0.3-0.55-0.3-1.04
				v-1.79l-0.75-0.03v-0.38h0.79l0.05-1.09h0.47v1.09H259.62z"/>
			<path fill="#939393" d="M262.04,405.19c0.02,0.12,0.05,0.2,0.1,0.28c0.07,0.08,0.13,0.13,0.24,0.18c0.1,0.05,0.2,0.08,0.32,0.1
				c0.12,0.02,0.23,0.03,0.35,0.03c0.12,0,0.23-0.02,0.35-0.03c0.12-0.02,0.22-0.07,0.32-0.12c0.1-0.05,0.17-0.11,0.23-0.18
				c0.05-0.08,0.08-0.17,0.1-0.28c0-0.1-0.02-0.18-0.07-0.25c-0.03-0.07-0.1-0.12-0.18-0.15c-0.08-0.03-0.18-0.08-0.32-0.1
				c-0.12-0.03-0.27-0.05-0.43-0.08c-0.17-0.02-0.35-0.05-0.52-0.08c-0.17-0.03-0.33-0.08-0.47-0.15c-0.13-0.07-0.25-0.17-0.33-0.27
				c-0.08-0.12-0.13-0.27-0.15-0.45c0-0.18,0.03-0.33,0.12-0.47c0.08-0.13,0.2-0.23,0.33-0.32c0.13-0.08,0.3-0.15,0.47-0.18
				c0.17-0.03,0.35-0.05,0.53-0.05c0.18,0,0.35,0.02,0.54,0.07c0.18,0.03,0.33,0.1,0.47,0.18c0.13,0.08,0.25,0.18,0.33,0.32
				c0.08,0.13,0.12,0.27,0.12,0.45h-0.55c0-0.1-0.03-0.17-0.08-0.25c-0.05-0.07-0.12-0.13-0.2-0.17c-0.08-0.05-0.18-0.08-0.28-0.1
				c-0.12-0.02-0.22-0.03-0.34-0.03c-0.12,0-0.22,0.02-0.33,0.03c-0.12,0.02-0.22,0.05-0.3,0.1c-0.08,0.05-0.15,0.1-0.22,0.17
				c-0.05,0.07-0.08,0.17-0.07,0.27c0,0.17,0.08,0.28,0.25,0.35c0.17,0.07,0.4,0.12,0.74,0.17c0.18,0.02,0.37,0.05,0.55,0.08
				c0.18,0.03,0.33,0.08,0.49,0.15c0.13,0.07,0.25,0.17,0.34,0.28c0.08,0.12,0.12,0.28,0.12,0.5c0,0.18-0.05,0.33-0.13,0.47
				c-0.08,0.13-0.2,0.25-0.33,0.34c-0.13,0.08-0.3,0.15-0.49,0.2c-0.18,0.05-0.38,0.07-0.58,0.07c-0.18,0-0.37-0.02-0.55-0.05
				c-0.18-0.03-0.35-0.1-0.48-0.17c-0.15-0.08-0.27-0.18-0.35-0.33c-0.1-0.13-0.15-0.3-0.17-0.5h0.55V405.19z"/>
			<path fill="#939393" d="M265.77,406.24c-0.1,0-0.18-0.03-0.27-0.1c-0.07-0.07-0.12-0.15-0.12-0.25c0-0.12,0.03-0.2,0.12-0.25
				c0.07-0.07,0.17-0.08,0.27-0.08c0.1,0,0.2,0.04,0.27,0.08c0.07,0.07,0.12,0.15,0.12,0.25s-0.03,0.18-0.12,0.25
				C265.97,406.21,265.89,406.24,265.77,406.24z"/>
			<path fill="#939393" d="M268.9,403.62c0-0.4,0.07-0.75,0.2-1.07c0.13-0.32,0.32-0.6,0.54-0.82c0.23-0.24,0.5-0.4,0.8-0.52
				c0.3-0.12,0.63-0.18,1-0.18c0.25,0,0.49,0.03,0.74,0.08c0.23,0.05,0.47,0.15,0.67,0.27c0.2,0.12,0.38,0.28,0.53,0.47
				c0.15,0.18,0.27,0.42,0.34,0.69h-0.6c-0.07-0.19-0.15-0.34-0.27-0.47c-0.12-0.12-0.23-0.22-0.38-0.3
				c-0.15-0.08-0.3-0.13-0.48-0.17c-0.17-0.03-0.35-0.05-0.54-0.05c-0.3,0-0.57,0.05-0.8,0.15c-0.23,0.1-0.44,0.25-0.6,0.43
				c-0.17,0.18-0.3,0.4-0.39,0.65c-0.08,0.25-0.13,0.52-0.13,0.82c0,0.3,0.05,0.57,0.13,0.82c0.08,0.25,0.22,0.47,0.39,0.65
				c0.17,0.18,0.37,0.32,0.6,0.44c0.23,0.1,0.5,0.15,0.8,0.15c0.27,0,0.5-0.03,0.72-0.1c0.22-0.07,0.42-0.17,0.58-0.32
				c0.17-0.13,0.3-0.32,0.4-0.52c0.1-0.22,0.17-0.45,0.18-0.74h-1.82v-0.52h2.37c0.02,0.37-0.03,0.72-0.12,1.06
				c-0.1,0.33-0.25,0.62-0.45,0.87c-0.2,0.25-0.47,0.45-0.79,0.6c-0.32,0.15-0.69,0.22-1.1,0.22c-0.37,0-0.7-0.07-1-0.19
				c-0.32-0.11-0.59-0.3-0.8-0.53c-0.23-0.24-0.4-0.5-0.53-0.84C268.97,404.37,268.9,404.02,268.9,403.62z"/>
			<path fill="#939393" d="M275.39,403.17c0.1-0.2,0.25-0.35,0.45-0.43c0.18-0.08,0.4-0.13,0.62-0.13c0.3,0,0.58,0.08,0.82,0.27
				l-0.13,0.48c-0.12-0.07-0.23-0.13-0.35-0.17c-0.12-0.03-0.25-0.07-0.38-0.07c-0.13,0-0.25,0.02-0.37,0.07
				c-0.12,0.05-0.22,0.1-0.32,0.18c-0.08,0.08-0.17,0.17-0.22,0.28c-0.05,0.12-0.08,0.24-0.08,0.37v2.16h-0.57v-2.66
				c0-0.08,0-0.15,0-0.22c0-0.07-0.02-0.12-0.05-0.17c-0.03-0.03-0.07-0.07-0.13-0.08c-0.05-0.02-0.13-0.02-0.23-0.02v-0.38
				c0.13-0.02,0.27-0.03,0.37-0.03c0.12,0,0.22,0.02,0.3,0.05s0.15,0.08,0.2,0.17C275.37,402.92,275.39,403.03,275.39,403.17z"/>
			<path fill="#939393" d="M279.5,402.6c0.6,0,1.04,0.17,1.3,0.5c0.27,0.33,0.35,0.79,0.25,1.37h-2.78
				c-0.02,0.2,0.02,0.38,0.08,0.54c0.07,0.15,0.17,0.3,0.3,0.4c0.13,0.12,0.29,0.2,0.45,0.25c0.17,0.05,0.37,0.08,0.57,0.08
				s0.4-0.02,0.6-0.07c0.18-0.05,0.38-0.1,0.6-0.18l0.08,0.43c-0.42,0.2-0.85,0.3-1.29,0.3c-0.29,0-0.55-0.05-0.8-0.13
				c-0.25-0.08-0.45-0.22-0.64-0.39c-0.17-0.17-0.3-0.37-0.4-0.6c-0.1-0.24-0.13-0.5-0.12-0.8c0.02-0.28,0.07-0.52,0.17-0.74
				c0.1-0.22,0.23-0.4,0.38-0.54c0.17-0.15,0.35-0.27,0.57-0.33C279.01,402.65,279.25,402.6,279.5,402.6z M279.5,403.05
				c-0.32,0-0.58,0.08-0.8,0.25c-0.22,0.17-0.35,0.42-0.4,0.73h2.29c0.02-0.17-0.02-0.32-0.07-0.43c-0.05-0.12-0.13-0.23-0.23-0.32
				c-0.1-0.08-0.22-0.15-0.35-0.18C279.8,403.08,279.65,403.05,279.5,403.05z"/>
			<path fill="#939393" d="M284.32,405.56c-0.07,0.12-0.15,0.24-0.25,0.32c-0.1,0.08-0.22,0.17-0.33,0.22
				c-0.12,0.05-0.25,0.1-0.4,0.13c-0.13,0.03-0.27,0.03-0.4,0.03c-0.17,0-0.32-0.02-0.47-0.05s-0.28-0.1-0.4-0.19
				c-0.12-0.08-0.2-0.18-0.27-0.32c-0.07-0.13-0.1-0.29-0.1-0.47c0-0.2,0.03-0.37,0.1-0.52c0.07-0.15,0.17-0.27,0.29-0.37
				c0.12-0.1,0.27-0.17,0.43-0.22c0.17-0.05,0.33-0.07,0.52-0.07c0.2,0,0.42,0.02,0.63,0.05c0.22,0.03,0.4,0.1,0.58,0.2v-0.52
				c0-0.15-0.03-0.27-0.1-0.37c-0.07-0.1-0.17-0.17-0.27-0.23c-0.12-0.05-0.23-0.08-0.35-0.12c-0.13-0.02-0.25-0.03-0.37-0.03
				c-0.2,0-0.4,0.02-0.57,0.07c-0.18,0.03-0.35,0.1-0.5,0.2l-0.1-0.45c0.17-0.08,0.37-0.15,0.59-0.2c0.22-0.05,0.43-0.07,0.67-0.07
				c0.2,0,0.38,0.02,0.59,0.05c0.18,0.03,0.35,0.1,0.5,0.2c0.15,0.1,0.25,0.22,0.34,0.37c0.08,0.15,0.12,0.35,0.12,0.57v1.47
				c0,0.1,0,0.18,0,0.25c0,0.08,0.02,0.13,0.04,0.18c0.02,0.05,0.07,0.08,0.12,0.1c0.05,0.02,0.13,0.02,0.25,0v0.37
				c-0.15,0.02-0.27,0.03-0.38,0.03c-0.1,0-0.2-0.03-0.27-0.08c-0.07-0.05-0.13-0.12-0.17-0.22
				C284.33,405.84,284.32,405.71,284.32,405.56z M284.23,404.75c-0.12-0.07-0.27-0.13-0.47-0.17c-0.2-0.05-0.4-0.07-0.6-0.07
				c-0.12,0-0.22,0.01-0.33,0.03c-0.12,0.02-0.2,0.07-0.29,0.12c-0.08,0.05-0.15,0.12-0.2,0.22c-0.05,0.08-0.08,0.2-0.08,0.32
				c0,0.12,0.02,0.2,0.07,0.28s0.1,0.13,0.17,0.18c0.07,0.05,0.15,0.07,0.25,0.08c0.1,0.02,0.18,0.03,0.29,0.03
				c0.12,0,0.23-0.02,0.37-0.05c0.12-0.03,0.25-0.08,0.35-0.13c0.12-0.07,0.22-0.15,0.3-0.25c0.08-0.1,0.15-0.22,0.18-0.37V404.75z"
				/>
			<path fill="#939393" d="M286.86,402.68h1.29v0.42h-1.29v1.77c0,0.32,0.07,0.55,0.18,0.69c0.13,0.15,0.3,0.22,0.54,0.22
				c0.18,0,0.42-0.05,0.69-0.15l0.07,0.45c-0.32,0.1-0.63,0.17-0.92,0.17c-0.35,0-0.62-0.1-0.82-0.32c-0.2-0.22-0.3-0.55-0.3-1.04
				v-1.79l-0.75-0.03v-0.38h0.79l0.05-1.09h0.47v1.09H286.86z"/>
			<path fill="#939393" d="M290.69,403.63c0-0.4,0.07-0.75,0.2-1.09c0.13-0.32,0.32-0.6,0.55-0.83c0.23-0.24,0.5-0.4,0.82-0.52
				c0.32-0.12,0.65-0.18,1-0.17c0.25,0,0.48,0.03,0.74,0.1c0.23,0.07,0.45,0.17,0.65,0.3c0.2,0.13,0.38,0.3,0.54,0.5
				s0.27,0.43,0.35,0.7h-0.58c-0.15-0.35-0.38-0.6-0.69-0.79c-0.3-0.17-0.64-0.25-1-0.25c-0.28,0-0.55,0.05-0.8,0.15
				c-0.25,0.1-0.45,0.25-0.62,0.44c-0.17,0.18-0.3,0.4-0.4,0.65c-0.1,0.25-0.15,0.53-0.15,0.82s0.05,0.55,0.13,0.8
				c0.1,0.25,0.22,0.47,0.4,0.65c0.17,0.18,0.38,0.33,0.62,0.43c0.23,0.1,0.5,0.15,0.8,0.15c0.4,0,0.74-0.1,1.05-0.28
				c0.3-0.19,0.54-0.47,0.67-0.84h0.59c-0.07,0.28-0.18,0.54-0.34,0.75c-0.15,0.22-0.33,0.38-0.54,0.53
				c-0.2,0.13-0.43,0.25-0.67,0.32c-0.25,0.07-0.5,0.1-0.75,0.1c-0.35,0-0.69-0.07-1-0.18c-0.32-0.12-0.59-0.3-0.82-0.52
				c-0.23-0.23-0.42-0.5-0.55-0.82C290.75,404.41,290.69,404.04,290.69,403.63z"/>
			<path fill="#939393" d="M299.92,404.42c0,0.3-0.05,0.57-0.17,0.8c-0.1,0.23-0.25,0.42-0.42,0.57c-0.17,0.15-0.37,0.27-0.6,0.33
				c-0.22,0.08-0.45,0.12-0.69,0.12c-0.23,0-0.45-0.03-0.67-0.12c-0.22-0.08-0.42-0.2-0.58-0.35c-0.17-0.15-0.32-0.33-0.42-0.57
				c-0.1-0.24-0.15-0.49-0.15-0.8c0-0.3,0.05-0.57,0.17-0.8c0.1-0.23,0.25-0.42,0.42-0.57c0.17-0.15,0.37-0.27,0.6-0.33
				c0.22-0.08,0.45-0.12,0.69-0.12c0.23,0,0.47,0.03,0.69,0.12c0.22,0.08,0.42,0.18,0.59,0.33s0.32,0.33,0.42,0.57
				C299.87,403.85,299.92,404.12,299.92,404.42z M296.79,404.42c0,0.22,0.03,0.42,0.12,0.59c0.07,0.17,0.17,0.32,0.29,0.42
				c0.12,0.12,0.25,0.2,0.42,0.25c0.15,0.05,0.32,0.08,0.47,0.08c0.17,0,0.32-0.03,0.47-0.08c0.15-0.05,0.28-0.15,0.4-0.25
				c0.12-0.12,0.22-0.25,0.28-0.42c0.07-0.17,0.12-0.37,0.12-0.59c0-0.22-0.03-0.42-0.12-0.59c-0.07-0.17-0.17-0.3-0.28-0.42
				c-0.12-0.12-0.25-0.18-0.42-0.25c-0.15-0.05-0.32-0.08-0.47-0.08c-0.17,0-0.32,0.03-0.47,0.08c-0.15,0.05-0.28,0.13-0.4,0.25
				c-0.12,0.12-0.22,0.25-0.29,0.42C296.82,404,296.79,404.2,296.79,404.42z"/>
			<path fill="#939393" d="M303.51,406.19v-2.07c0-0.32-0.08-0.57-0.27-0.75c-0.18-0.18-0.42-0.27-0.72-0.27
				c-0.15,0-0.29,0.02-0.42,0.07c-0.13,0.05-0.23,0.12-0.33,0.2s-0.17,0.2-0.22,0.32c-0.05,0.12-0.08,0.25-0.08,0.4v2.11h-0.55
				v-2.51c0-0.12,0-0.22-0.02-0.28c0-0.08-0.03-0.13-0.05-0.18c-0.03-0.05-0.07-0.07-0.12-0.08c-0.05-0.02-0.13-0.02-0.22,0v-0.45
				c0.1-0.02,0.2-0.03,0.32-0.03c0.12-0.02,0.22,0,0.3,0.03c0.1,0.03,0.17,0.08,0.23,0.17c0.07,0.08,0.08,0.22,0.08,0.39
				c0.15-0.24,0.33-0.4,0.55-0.47c0.22-0.08,0.43-0.12,0.69-0.12c0.23,0,0.44,0.03,0.62,0.12c0.17,0.08,0.32,0.18,0.43,0.32
				c0.12,0.13,0.2,0.3,0.27,0.48c0.07,0.18,0.08,0.38,0.08,0.6v2.07h-0.58V406.19z"/>
			<path fill="#939393" d="M306.42,406.21l-1.67-3.48v-0.07h0.62l0.6,1.32l0.59,1.37l0.58-1.39l0.57-1.3h0.62v0.07l-1.65,3.48
				H306.42L306.42,406.21z"/>
			<path fill="#939393" d="M310.62,402.6c0.6,0,1.04,0.17,1.3,0.5s0.35,0.79,0.25,1.37h-2.78c-0.02,0.2,0.02,0.38,0.08,0.54
				c0.07,0.15,0.17,0.3,0.3,0.4c0.13,0.12,0.28,0.2,0.45,0.25c0.17,0.05,0.37,0.08,0.57,0.08s0.4-0.02,0.6-0.07
				c0.18-0.05,0.38-0.1,0.6-0.18l0.08,0.43c-0.42,0.2-0.85,0.3-1.29,0.3c-0.28,0-0.55-0.05-0.8-0.13c-0.25-0.08-0.45-0.22-0.63-0.39
				c-0.17-0.17-0.3-0.37-0.4-0.6c-0.1-0.24-0.13-0.5-0.12-0.8c0.02-0.28,0.07-0.52,0.17-0.74s0.23-0.4,0.38-0.54
				c0.17-0.15,0.35-0.27,0.57-0.33C310.15,402.65,310.37,402.6,310.62,402.6z M310.62,403.05c-0.32,0-0.58,0.08-0.8,0.25
				c-0.22,0.17-0.35,0.42-0.4,0.73h2.29c0.02-0.17-0.02-0.32-0.07-0.43c-0.05-0.12-0.13-0.23-0.24-0.32
				c-0.1-0.08-0.22-0.15-0.35-0.18C310.92,403.08,310.77,403.05,310.62,403.05z"/>
			<path fill="#939393" d="M315.8,406.19v-2.07c0-0.32-0.08-0.57-0.27-0.75c-0.19-0.18-0.42-0.27-0.72-0.27
				c-0.15,0-0.28,0.02-0.42,0.07c-0.13,0.05-0.23,0.12-0.33,0.2s-0.17,0.2-0.22,0.32c-0.05,0.12-0.09,0.25-0.09,0.4v2.11h-0.57
				v-2.51c0-0.12,0-0.22-0.02-0.28c0-0.08-0.03-0.13-0.05-0.18c-0.03-0.05-0.07-0.07-0.12-0.08c-0.05-0.02-0.13-0.02-0.22,0v-0.45
				c0.1-0.02,0.2-0.03,0.32-0.03c0.12-0.02,0.22,0,0.3,0.03c0.1,0.03,0.17,0.08,0.23,0.17c0.07,0.08,0.08,0.22,0.08,0.39
				c0.15-0.24,0.33-0.4,0.55-0.47c0.22-0.08,0.43-0.12,0.68-0.12c0.24,0,0.44,0.03,0.62,0.12c0.17,0.08,0.32,0.18,0.44,0.32
				c0.12,0.13,0.2,0.3,0.27,0.48c0.07,0.18,0.08,0.38,0.08,0.6v2.07h-0.57V406.19z"/>
			<path fill="#939393" d="M317.38,401.51c0-0.12,0.03-0.22,0.12-0.27c0.08-0.05,0.15-0.08,0.25-0.08s0.17,0.03,0.25,0.08
				c0.08,0.05,0.12,0.15,0.12,0.27c0,0.12-0.03,0.22-0.12,0.27c-0.08,0.07-0.15,0.08-0.25,0.08s-0.17-0.03-0.25-0.08
				C317.43,401.73,317.38,401.63,317.38,401.51z M318.03,406.19h-0.57v-3.51h0.57V406.19z"/>
			<path fill="#939393" d="M320.72,402.6c0.6,0,1.04,0.17,1.3,0.5s0.35,0.79,0.25,1.37h-2.79c-0.02,0.2,0.02,0.38,0.08,0.54
				c0.07,0.15,0.17,0.3,0.3,0.4c0.14,0.12,0.29,0.2,0.45,0.25c0.17,0.05,0.37,0.08,0.57,0.08c0.2,0,0.4-0.02,0.6-0.07
				c0.18-0.05,0.38-0.1,0.6-0.18l0.08,0.43c-0.42,0.2-0.85,0.3-1.29,0.3c-0.29,0-0.55-0.05-0.8-0.13c-0.25-0.08-0.45-0.22-0.64-0.39
				c-0.17-0.17-0.3-0.37-0.4-0.6c-0.1-0.24-0.13-0.5-0.12-0.8c0.02-0.28,0.07-0.52,0.17-0.74s0.23-0.4,0.38-0.54
				c0.17-0.15,0.35-0.27,0.57-0.33C320.25,402.65,320.49,402.6,320.72,402.6z M320.72,403.05c-0.32,0-0.58,0.08-0.8,0.25
				c-0.22,0.17-0.35,0.42-0.4,0.73h2.29c0.02-0.17-0.02-0.32-0.07-0.43c-0.05-0.12-0.13-0.23-0.23-0.32
				c-0.1-0.08-0.22-0.15-0.35-0.18C321.02,403.08,320.87,403.05,320.72,403.05z"/>
			<path fill="#939393" d="M325.9,406.19v-2.07c0-0.32-0.08-0.57-0.27-0.75c-0.18-0.18-0.42-0.27-0.72-0.27
				c-0.15,0-0.28,0.02-0.42,0.07c-0.13,0.05-0.23,0.12-0.33,0.2s-0.17,0.2-0.22,0.32c-0.05,0.12-0.08,0.25-0.08,0.4v2.11h-0.57
				v-2.51c0-0.12,0-0.22-0.02-0.28c0-0.08-0.03-0.13-0.05-0.18c-0.03-0.05-0.07-0.07-0.12-0.08c-0.05-0.02-0.13-0.02-0.21,0v-0.45
				c0.1-0.02,0.2-0.03,0.32-0.03c0.12-0.02,0.22,0,0.3,0.03c0.1,0.03,0.17,0.08,0.24,0.17c0.07,0.08,0.08,0.22,0.08,0.39
				c0.15-0.24,0.34-0.4,0.55-0.47c0.22-0.08,0.43-0.12,0.69-0.12c0.23,0,0.43,0.03,0.62,0.12c0.17,0.08,0.32,0.18,0.43,0.32
				c0.12,0.13,0.2,0.3,0.27,0.48c0.07,0.18,0.08,0.38,0.08,0.6v2.07h-0.57V406.19z"/>
			<path fill="#939393" d="M330.27,403.77c-0.1-0.22-0.23-0.38-0.43-0.49c-0.19-0.1-0.4-0.17-0.62-0.17c-0.17,0-0.32,0.03-0.49,0.08
				c-0.15,0.05-0.3,0.13-0.42,0.23c-0.12,0.1-0.22,0.23-0.3,0.4c-0.08,0.17-0.12,0.35-0.12,0.57s0.03,0.42,0.12,0.57
				c0.08,0.17,0.17,0.3,0.28,0.42c0.12,0.12,0.25,0.2,0.4,0.25c0.15,0.05,0.32,0.08,0.47,0.08c0.23,0,0.45-0.07,0.65-0.18
				c0.2-0.12,0.35-0.3,0.45-0.55h0.55c-0.05,0.22-0.13,0.38-0.25,0.55c-0.12,0.15-0.25,0.28-0.4,0.38c-0.15,0.1-0.32,0.19-0.49,0.24
				c-0.18,0.05-0.35,0.08-0.53,0.08c-0.24,0-0.45-0.03-0.67-0.12c-0.22-0.08-0.42-0.2-0.6-0.35c-0.17-0.15-0.32-0.35-0.42-0.57
				c-0.1-0.24-0.17-0.5-0.17-0.8c0-0.3,0.05-0.57,0.17-0.8c0.12-0.23,0.25-0.42,0.43-0.57c0.17-0.15,0.37-0.25,0.6-0.33
				c0.22-0.07,0.45-0.12,0.69-0.12c0.19,0,0.35,0.03,0.52,0.08c0.17,0.05,0.34,0.12,0.47,0.22c0.15,0.1,0.27,0.22,0.38,0.37
				c0.12,0.15,0.18,0.32,0.25,0.5h-0.54V403.77z"/>
			<path fill="#939393" d="M333.25,402.6c0.6,0,1.04,0.17,1.3,0.5c0.27,0.33,0.35,0.79,0.25,1.37h-2.77
				c-0.02,0.2,0.02,0.38,0.08,0.54c0.07,0.15,0.17,0.3,0.3,0.4c0.13,0.12,0.28,0.2,0.45,0.25c0.17,0.05,0.37,0.08,0.57,0.08
				s0.4-0.02,0.6-0.07c0.18-0.05,0.38-0.1,0.6-0.18l0.08,0.43c-0.42,0.2-0.85,0.3-1.29,0.3c-0.28,0-0.55-0.05-0.8-0.13
				c-0.25-0.08-0.45-0.22-0.64-0.39c-0.17-0.17-0.3-0.37-0.4-0.6c-0.1-0.24-0.13-0.5-0.12-0.8c0.02-0.28,0.07-0.52,0.17-0.74
				c0.1-0.22,0.23-0.4,0.38-0.54c0.17-0.15,0.35-0.27,0.57-0.33C332.78,402.65,333.01,402.6,333.25,402.6z M333.25,403.05
				c-0.32,0-0.59,0.08-0.8,0.25c-0.22,0.17-0.35,0.42-0.4,0.73h2.29c0.01-0.17-0.02-0.32-0.07-0.43c-0.05-0.12-0.13-0.23-0.23-0.32
				s-0.22-0.15-0.35-0.18C333.54,403.08,333.41,403.05,333.25,403.05z"/>
			<path fill="#939393" d="M336.04,406.24c-0.1,0-0.18-0.03-0.27-0.1c-0.07-0.07-0.12-0.15-0.12-0.25c0-0.12,0.03-0.2,0.12-0.25
				c0.07-0.07,0.17-0.08,0.27-0.08c0.1,0,0.2,0.04,0.27,0.08c0.07,0.07,0.12,0.15,0.12,0.25s-0.03,0.18-0.12,0.25
				C336.22,406.21,336.14,406.24,336.04,406.24z"/>
			<path fill="#939393" d="M339.16,403.62c0-0.4,0.07-0.75,0.2-1.07c0.13-0.32,0.32-0.6,0.54-0.82c0.23-0.24,0.5-0.4,0.8-0.52
				s0.63-0.18,1-0.18c0.25,0,0.49,0.03,0.74,0.08c0.24,0.05,0.47,0.15,0.67,0.27c0.2,0.12,0.39,0.28,0.54,0.47
				c0.15,0.18,0.27,0.42,0.33,0.69h-0.6c-0.07-0.19-0.15-0.34-0.27-0.47c-0.12-0.12-0.23-0.22-0.38-0.3
				c-0.15-0.08-0.3-0.13-0.49-0.17c-0.17-0.03-0.35-0.05-0.54-0.05c-0.3,0-0.57,0.05-0.8,0.15c-0.23,0.1-0.43,0.25-0.6,0.43
				c-0.17,0.18-0.3,0.4-0.39,0.65c-0.08,0.25-0.13,0.52-0.13,0.82c0,0.3,0.05,0.57,0.13,0.82c0.09,0.25,0.22,0.47,0.39,0.65
				s0.37,0.32,0.6,0.44c0.23,0.1,0.5,0.15,0.8,0.15c0.27,0,0.5-0.03,0.72-0.1c0.22-0.07,0.42-0.17,0.58-0.32
				c0.17-0.13,0.3-0.32,0.4-0.52c0.1-0.22,0.17-0.45,0.19-0.74h-1.82v-0.52h2.38c0.02,0.37-0.03,0.72-0.12,1.06
				c-0.1,0.33-0.25,0.62-0.45,0.87c-0.2,0.25-0.47,0.45-0.79,0.6c-0.32,0.15-0.69,0.22-1.1,0.22c-0.37,0-0.7-0.07-1-0.19
				c-0.32-0.11-0.59-0.3-0.8-0.53c-0.24-0.24-0.4-0.5-0.54-0.84C339.22,404.37,339.16,404.02,339.16,403.62z"/>
			<path fill="#939393" d="M345.65,403.17c0.1-0.2,0.25-0.35,0.45-0.43c0.18-0.08,0.4-0.13,0.62-0.13c0.3,0,0.58,0.08,0.82,0.27
				l-0.14,0.48c-0.12-0.07-0.23-0.13-0.35-0.17c-0.12-0.03-0.25-0.07-0.38-0.07c-0.13,0-0.25,0.02-0.37,0.07
				c-0.12,0.05-0.21,0.1-0.32,0.18c-0.09,0.08-0.17,0.17-0.22,0.28c-0.05,0.12-0.08,0.24-0.08,0.37v2.16h-0.57v-2.66
				c0-0.08,0-0.15,0-0.22c0-0.07-0.02-0.12-0.05-0.17c-0.03-0.03-0.07-0.07-0.13-0.08c-0.05-0.02-0.13-0.02-0.23-0.02v-0.38
				c0.13-0.02,0.27-0.03,0.37-0.03c0.12,0,0.22,0.02,0.3,0.05s0.15,0.08,0.2,0.17C345.62,402.92,345.64,403.03,345.65,403.17z"/>
			<path fill="#939393" d="M349.75,402.6c0.6,0,1.04,0.17,1.31,0.5c0.27,0.33,0.35,0.79,0.25,1.37h-2.78
				c-0.02,0.2,0.02,0.38,0.08,0.54c0.07,0.15,0.17,0.3,0.3,0.4c0.13,0.12,0.28,0.2,0.45,0.25c0.17,0.05,0.37,0.08,0.57,0.08
				c0.2,0,0.4-0.02,0.6-0.07c0.18-0.05,0.38-0.1,0.6-0.18l0.08,0.43c-0.42,0.2-0.85,0.3-1.29,0.3c-0.28,0-0.55-0.05-0.8-0.13
				c-0.25-0.08-0.45-0.22-0.64-0.39c-0.17-0.17-0.3-0.37-0.4-0.6c-0.1-0.24-0.13-0.5-0.12-0.8c0.01-0.28,0.07-0.52,0.17-0.74
				c0.1-0.22,0.23-0.4,0.38-0.54c0.17-0.15,0.35-0.27,0.57-0.33C349.28,402.65,349.5,402.6,349.75,402.6z M349.75,403.05
				c-0.32,0-0.58,0.08-0.8,0.25c-0.22,0.17-0.35,0.42-0.4,0.73h2.29c0.02-0.17-0.02-0.32-0.07-0.43c-0.05-0.12-0.13-0.23-0.23-0.32
				c-0.1-0.08-0.22-0.15-0.35-0.18C350.05,403.08,349.9,403.05,349.75,403.05z"/>
			<path fill="#939393" d="M354.57,405.56c-0.07,0.12-0.15,0.24-0.25,0.32c-0.1,0.08-0.22,0.17-0.33,0.22
				c-0.12,0.05-0.25,0.1-0.4,0.13c-0.13,0.03-0.27,0.03-0.4,0.03c-0.17,0-0.32-0.02-0.47-0.05c-0.15-0.03-0.28-0.1-0.4-0.19
				c-0.12-0.08-0.2-0.18-0.27-0.32c-0.07-0.13-0.1-0.29-0.1-0.47c0-0.2,0.03-0.37,0.1-0.52c0.07-0.15,0.17-0.27,0.29-0.37
				c0.12-0.1,0.27-0.17,0.43-0.22c0.17-0.05,0.33-0.07,0.52-0.07c0.2,0,0.42,0.02,0.64,0.05c0.22,0.03,0.4,0.1,0.58,0.2v-0.52
				c0-0.15-0.03-0.27-0.1-0.37c-0.07-0.1-0.17-0.17-0.27-0.23c-0.12-0.05-0.24-0.08-0.35-0.12c-0.13-0.02-0.25-0.03-0.37-0.03
				c-0.2,0-0.4,0.02-0.57,0.07c-0.18,0.03-0.35,0.1-0.5,0.2l-0.1-0.45c0.17-0.08,0.37-0.15,0.58-0.2s0.43-0.07,0.67-0.07
				c0.2,0,0.38,0.02,0.58,0.05c0.18,0.03,0.35,0.1,0.5,0.2c0.15,0.1,0.25,0.22,0.34,0.37c0.08,0.15,0.12,0.35,0.12,0.57v1.47
				c0,0.1,0,0.18,0,0.25c0,0.08,0.02,0.13,0.03,0.18c0.02,0.05,0.07,0.08,0.12,0.1s0.13,0.02,0.25,0v0.37
				c-0.15,0.02-0.27,0.03-0.39,0.03c-0.1,0-0.2-0.03-0.27-0.08c-0.07-0.05-0.13-0.12-0.17-0.22
				C354.58,405.84,354.57,405.71,354.57,405.56z M354.5,404.75c-0.12-0.07-0.27-0.13-0.47-0.17c-0.2-0.05-0.4-0.07-0.6-0.07
				c-0.12,0-0.22,0.01-0.33,0.03c-0.12,0.02-0.2,0.07-0.28,0.12c-0.08,0.05-0.15,0.12-0.2,0.22c-0.05,0.08-0.08,0.2-0.08,0.32
				c0,0.12,0.02,0.2,0.07,0.28c0.05,0.08,0.1,0.13,0.17,0.18c0.07,0.05,0.15,0.07,0.25,0.08c0.1,0.02,0.18,0.03,0.28,0.03
				c0.12,0,0.23-0.02,0.37-0.05c0.12-0.03,0.25-0.08,0.35-0.13c0.12-0.07,0.22-0.15,0.3-0.25c0.08-0.1,0.15-0.22,0.18-0.37V404.75z"
				/>
			<path fill="#939393" d="M357.11,402.68h1.29v0.42h-1.29v1.77c0,0.32,0.07,0.55,0.18,0.69c0.13,0.15,0.3,0.22,0.54,0.22
				c0.18,0,0.42-0.05,0.68-0.15l0.07,0.45c-0.32,0.1-0.64,0.17-0.92,0.17c-0.35,0-0.62-0.1-0.82-0.32c-0.2-0.22-0.3-0.55-0.3-1.04
				v-1.79l-0.75-0.03v-0.38h0.79l0.05-1.09h0.47v1.09H357.11z"/>
			<path fill="#939393" d="M360.72,401.63v-0.55h3.75v0.55h-1.57v4.56h-0.6v-4.56H360.72z"/>
			<path fill="#939393" d="M366.72,402.6c0.6,0,1.04,0.17,1.3,0.5c0.27,0.33,0.35,0.79,0.25,1.37h-2.78
				c-0.01,0.2,0.02,0.38,0.09,0.54c0.07,0.15,0.17,0.3,0.3,0.4c0.13,0.12,0.28,0.2,0.45,0.25c0.17,0.05,0.37,0.08,0.57,0.08
				s0.4-0.02,0.6-0.07c0.18-0.05,0.38-0.1,0.6-0.18l0.08,0.43c-0.42,0.2-0.85,0.3-1.29,0.3c-0.28,0-0.55-0.05-0.8-0.13
				c-0.25-0.08-0.45-0.22-0.63-0.39c-0.17-0.17-0.3-0.37-0.4-0.6c-0.1-0.24-0.13-0.5-0.12-0.8c0.02-0.28,0.07-0.52,0.17-0.74
				c0.1-0.22,0.23-0.4,0.38-0.54c0.17-0.15,0.35-0.27,0.57-0.33C366.24,402.65,366.47,402.6,366.72,402.6z M366.72,403.05
				c-0.32,0-0.59,0.08-0.8,0.25c-0.22,0.17-0.35,0.42-0.4,0.73h2.29c0.02-0.17-0.02-0.32-0.07-0.43c-0.05-0.12-0.13-0.23-0.23-0.32
				s-0.22-0.15-0.35-0.18C367.02,403.08,366.87,403.05,366.72,403.05z"/>
			<path fill="#939393" d="M371.91,406.19v-2.07c0-0.32-0.08-0.57-0.27-0.75c-0.18-0.18-0.42-0.27-0.72-0.27
				c-0.15,0-0.28,0.02-0.42,0.07c-0.13,0.05-0.24,0.12-0.33,0.2c-0.1,0.08-0.17,0.2-0.22,0.32c-0.05,0.12-0.08,0.25-0.08,0.4v2.11
				h-0.57v-2.51c0-0.12,0-0.22-0.02-0.28c0-0.08-0.03-0.13-0.05-0.18c-0.03-0.05-0.07-0.07-0.12-0.08c-0.05-0.02-0.13-0.02-0.22,0
				v-0.45c0.1-0.02,0.2-0.03,0.32-0.03c0.12-0.02,0.22,0,0.3,0.03c0.1,0.03,0.17,0.08,0.24,0.17c0.07,0.08,0.08,0.22,0.08,0.39
				c0.15-0.24,0.33-0.4,0.55-0.47c0.22-0.08,0.44-0.12,0.69-0.12c0.24,0,0.44,0.03,0.62,0.12c0.17,0.08,0.32,0.18,0.43,0.32
				c0.12,0.13,0.2,0.3,0.27,0.48s0.08,0.38,0.08,0.6v2.07h-0.57V406.19z"/>
			<path fill="#939393" d="M375.9,405.56c-0.07,0.12-0.15,0.24-0.25,0.32c-0.1,0.08-0.22,0.17-0.33,0.22
				c-0.12,0.05-0.25,0.1-0.4,0.13c-0.13,0.03-0.27,0.03-0.4,0.03c-0.17,0-0.32-0.02-0.47-0.05c-0.15-0.03-0.29-0.1-0.4-0.19
				c-0.12-0.08-0.2-0.18-0.27-0.32c-0.07-0.13-0.1-0.29-0.1-0.47c0-0.2,0.03-0.37,0.1-0.52c0.07-0.15,0.17-0.27,0.28-0.37
				c0.12-0.1,0.27-0.17,0.44-0.22c0.17-0.05,0.33-0.07,0.52-0.07c0.2,0,0.42,0.02,0.63,0.05c0.22,0.03,0.4,0.1,0.59,0.2v-0.52
				c0-0.15-0.04-0.27-0.1-0.37c-0.07-0.1-0.17-0.17-0.27-0.23c-0.12-0.05-0.23-0.08-0.35-0.12c-0.13-0.02-0.25-0.03-0.37-0.03
				c-0.2,0-0.4,0.02-0.57,0.07c-0.17,0.05-0.35,0.1-0.5,0.2l-0.1-0.45c0.17-0.08,0.37-0.15,0.58-0.2c0.22-0.05,0.44-0.07,0.67-0.07
				c0.2,0,0.39,0.02,0.59,0.05c0.18,0.03,0.35,0.1,0.5,0.2c0.15,0.1,0.25,0.22,0.33,0.37c0.08,0.15,0.12,0.35,0.12,0.57v1.47
				c0,0.1,0,0.18,0,0.25c0,0.08,0.02,0.13,0.03,0.18c0.02,0.05,0.07,0.08,0.12,0.1c0.05,0.02,0.13,0.02,0.25,0v0.37
				c-0.15,0.02-0.27,0.03-0.38,0.03c-0.1,0-0.2-0.03-0.27-0.08c-0.07-0.05-0.13-0.12-0.17-0.22
				C375.92,405.84,375.9,405.71,375.9,405.56z M375.82,404.75c-0.12-0.07-0.27-0.13-0.47-0.17c-0.2-0.05-0.4-0.07-0.6-0.07
				c-0.12,0-0.21,0.01-0.33,0.03s-0.2,0.07-0.29,0.12c-0.08,0.05-0.15,0.12-0.2,0.22c-0.05,0.08-0.08,0.2-0.08,0.32
				c0,0.12,0.01,0.2,0.07,0.28c0.05,0.08,0.1,0.13,0.17,0.18c0.07,0.05,0.15,0.07,0.25,0.08c0.1,0.02,0.18,0.03,0.28,0.03
				c0.12,0,0.23-0.02,0.37-0.05c0.12-0.03,0.25-0.08,0.35-0.13c0.12-0.07,0.22-0.15,0.3-0.25c0.08-0.1,0.15-0.22,0.18-0.37V404.75z"
				/>
			<path fill="#939393" d="M380.23,406.19v-2.07c0-0.32-0.08-0.57-0.27-0.75c-0.18-0.18-0.42-0.27-0.72-0.27
				c-0.15,0-0.28,0.02-0.42,0.07c-0.13,0.05-0.23,0.12-0.33,0.2c-0.1,0.08-0.17,0.2-0.22,0.32c-0.05,0.12-0.08,0.25-0.08,0.4v2.11
				h-0.57v-2.51c0-0.12,0-0.22-0.01-0.28c0-0.08-0.03-0.13-0.05-0.18c-0.03-0.05-0.07-0.07-0.12-0.08c-0.05-0.02-0.13-0.02-0.21,0
				v-0.45c0.1-0.02,0.2-0.03,0.32-0.03c0.12-0.02,0.22,0,0.3,0.03c0.1,0.03,0.17,0.08,0.23,0.17c0.07,0.08,0.08,0.22,0.08,0.39
				c0.15-0.24,0.33-0.4,0.55-0.47c0.22-0.08,0.43-0.12,0.68-0.12c0.23,0,0.43,0.03,0.62,0.12c0.17,0.08,0.32,0.18,0.43,0.32
				c0.12,0.13,0.2,0.3,0.27,0.48c0.07,0.18,0.08,0.38,0.08,0.6v2.07h-0.57V406.19z"/>
			<path fill="#939393" d="M382.81,402.68h1.29v0.42h-1.29v1.77c0,0.32,0.07,0.55,0.19,0.69c0.13,0.15,0.3,0.22,0.53,0.22
				c0.18,0,0.42-0.05,0.69-0.15l0.07,0.45c-0.32,0.1-0.64,0.17-0.92,0.17c-0.35,0-0.62-0.1-0.82-0.32c-0.2-0.22-0.3-0.55-0.3-1.04
				v-1.79l-0.75-0.03v-0.38h0.79l0.05-1.09h0.47v1.09H382.81z"/>
			<path fill="#939393" d="M385.23,405.19c0.02,0.12,0.05,0.2,0.1,0.28c0.07,0.08,0.13,0.13,0.23,0.18c0.1,0.05,0.2,0.08,0.32,0.1
				c0.12,0.02,0.23,0.03,0.35,0.03c0.12,0,0.23-0.02,0.35-0.03c0.12-0.02,0.22-0.07,0.32-0.12c0.1-0.05,0.17-0.11,0.23-0.18
				c0.05-0.08,0.08-0.17,0.1-0.28c0-0.1-0.02-0.18-0.07-0.25c-0.03-0.07-0.1-0.12-0.18-0.15c-0.08-0.03-0.18-0.08-0.32-0.1
				c-0.12-0.03-0.27-0.05-0.43-0.08c-0.17-0.02-0.35-0.05-0.52-0.08c-0.17-0.03-0.33-0.08-0.47-0.15c-0.13-0.07-0.25-0.17-0.34-0.27
				c-0.08-0.12-0.13-0.27-0.15-0.45c0-0.18,0.03-0.33,0.12-0.47c0.08-0.13,0.2-0.23,0.33-0.32c0.13-0.08,0.3-0.15,0.47-0.18
				c0.17-0.03,0.35-0.05,0.54-0.05c0.18,0,0.35,0.02,0.53,0.07c0.18,0.03,0.33,0.1,0.47,0.18c0.13,0.08,0.25,0.18,0.33,0.32
				c0.08,0.13,0.12,0.27,0.12,0.45h-0.55c0-0.1-0.03-0.17-0.08-0.25c-0.05-0.07-0.12-0.13-0.2-0.17c-0.08-0.05-0.18-0.08-0.28-0.1
				c-0.12-0.02-0.22-0.03-0.33-0.03c-0.12,0-0.22,0.02-0.33,0.03c-0.12,0.02-0.22,0.05-0.3,0.1c-0.08,0.05-0.15,0.1-0.22,0.17
				c-0.05,0.07-0.08,0.17-0.07,0.27c0,0.17,0.09,0.28,0.25,0.35c0.17,0.07,0.4,0.12,0.74,0.17c0.18,0.02,0.37,0.05,0.55,0.08
				c0.18,0.03,0.34,0.08,0.49,0.15c0.13,0.07,0.25,0.17,0.33,0.28c0.08,0.12,0.12,0.28,0.12,0.5c0,0.18-0.05,0.33-0.13,0.47
				c-0.08,0.13-0.2,0.25-0.33,0.34c-0.13,0.08-0.3,0.15-0.49,0.2c-0.18,0.05-0.38,0.07-0.58,0.07c-0.18,0-0.37-0.02-0.55-0.05
				c-0.19-0.03-0.35-0.1-0.49-0.17c-0.15-0.08-0.27-0.18-0.35-0.33c-0.1-0.13-0.15-0.3-0.17-0.5h0.55V405.19z"/>
			<path fill="#939393" d="M388.96,406.24c-0.1,0-0.19-0.03-0.27-0.1c-0.07-0.07-0.12-0.15-0.12-0.25c0-0.12,0.03-0.2,0.12-0.25
				c0.07-0.07,0.17-0.08,0.27-0.08c0.1,0,0.2,0.04,0.27,0.08c0.07,0.07,0.12,0.15,0.12,0.25s-0.03,0.18-0.12,0.25
				C389.17,406.21,389.06,406.24,388.96,406.24z"/>
		</g>
		<g>
			<path fill="#939393" d="M389.5,401.04v-0.44h1.74v0.44h-0.62v1.92h-0.49v-1.92H389.5z"/>
			<path fill="#939393" d="M393.65,400.59h0.18v2.36h-0.5v-1.27l-0.59,0.74h-0.07l-0.58-0.74v1.27h-0.5v-2.36h0.18l0.96,1.12
				L393.65,400.59z"/>
		</g>
	</g>
</g>
</svg>
