<?xml version="1.0" encoding="utf-8"?>
<!-- Generator: Adobe Illustrator 17.1.0, SVG Export Plug-In . SVG Version: 6.00 Build 0)  -->
<!DOCTYPE svg PUBLIC "-//W3C//DTD SVG 1.1//EN" "http://www.w3.org/Graphics/SVG/1.1/DTD/svg11.dtd">
<svg version="1.1" id="Layer_1" xmlns="http://www.w3.org/2000/svg" xmlns:xlink="http://www.w3.org/1999/xlink" x="0px" y="0px"
	 viewBox="0 0 790 808.8" enable-background="new 0 0 790 808.8" xml:space="preserve">
<g>
	<g>
		<path fill="#FCD800" d="M386.3,42.4C252,42.4,134.8,115.5,72.2,224c-23.8,43.3-26,80.9-8.3,111.8c20.7,36.2,67.3,41.7,93.3,41.7
			h46.2L186.6,430c-10.6,31.7-6.1,65.4,10.4,88.7c16.2,22.3,42.1,34.6,72.9,34.6c21.6,0,43.9-3.6,64.6-13.2
			c-5.5-7.9-10.1-16.6-13.6-25.9c-3.1-8.5-5.3-17.4-6.5-26.5c-13,5-27.6,7.1-42,7.1c-8.3,0-20.4-3.1-26.6-11.9
			c-5.8-7.9-7.4-20.6-3.4-34.9l22.9-70.6h71.2l18.8-58.8h-70.9l31.4-96.3h-62.5l-31.2,96.3h-65c-20.7,0-33.8-5.3-39.9-16.1
			c-7-12.2-0.8-37,16.5-66.3l0.7-1.2c54.6-80.9,146.9-134.1,251.9-134.1c167.7,0,303.7,136,303.7,303.7
			c0,167.8-136,303.7-303.7,303.7c-148.3,0-271.8-106.4-298.3-247l-57.6,11.8c32,167.4,179.2,294,356,294
			c200.2,0,362.5-162.3,362.5-362.5C748.8,204.7,586.5,42.4,386.3,42.4z"/>
	</g>
	<g>
		<path fill="#FCD800" d="M616.9,502.8c-14.1,0-33.2-1.8-44.6-10c-4.4-3.3-10.4-9.2-12.1-18.3c-0.1-0.1-0.2-0.8-0.2-0.9
			c-0.7-4.7-0.4-10.3,1.8-16.7l44.8-138.1h-0.3h-62h0l-38.3,119.5c0,0.1,0,0.2-0.1,0.3c-10.7,30.9-43,56-71.9,56
			c-7.6,0-17.5-3.1-22.4-9.9c-3.8-5.2-7.4-14.3-2.8-27.8l44.8-138h-62.3l-38.2,119.3c-9.9,29.4-6.4,60.2,9.4,82.5
			c15.4,21.1,39.9,32.8,69.1,32.8c28.8,0,59.7-11.9,85-32.8c8.6,13,19.3,21.3,33.5,26.1c19.6,6.6,33,6.6,47.1,6.6
			c6.7,0,13.6-1.5,16.8-2.3c1.2-1.9,2.6-3.9,3.8-5.8c2.2-3.8,4.4-7.6,6.5-11.4c2-3.7,4.1-7.7,6-11.6c1.8-3.9,3.7-8,5.4-12
			c1.2-2.8,2.3-5.7,3.4-8.7C635.3,502,626.9,502.8,616.9,502.8z"/>
	</g>
</g>
</svg>
